<?xml version="1.0" encoding="utf-8"?>
<!-- Generator: Adobe Illustrator 27.5.0, SVG Export Plug-In . SVG Version: 6.00 Build 0)  -->
<svg version="1.1" xmlns="http://www.w3.org/2000/svg" xmlns:xlink="http://www.w3.org/1999/xlink" x="0px" y="0px"
	 viewBox="0 0 500 500" style="enable-background:new 0 0 500 500;" xml:space="preserve">
<g id="BACKGROUND">
	<g>
		<rect style="fill:#FFFEE1;" width="500" height="500"/>
	</g>
</g>
<g id="OBJECTS">
	<g>
		<ellipse style="fill:#DDD9A6;" cx="250" cy="423.703" rx="182.214" ry="21.317"/>
		<g>
			<g>
				<g>
					<path style="fill:#BC7468;" d="M236.081,139.109c-15.453-31.598-68.301-49.427-100.9-32.263
						c-32.6,17.163-49.518,45.273-37.775,87.02c5.643,20.06,15.329,34.805,23.87,44.711c10.186,1.74,20.252,1.733,30.545,1.626
						c5.329-0.048,10.634,0.356,15.976,0.082c5.11-0.173,9.805-1.049,14.939-1.675c1.255-0.158,2.517-0.429,3.892-0.693
						c6.772-1.556,13.413-2.778,19.889-5.144c1.274-0.497,2.441-1.113,3.715-1.61c9.339-2.888,18.143-6.373,26.601-11.803
						c2.63-1.717,5.136-3.514,7.531-5.4C251.944,189.859,246.053,159.5,236.081,139.109z"/>
					<path style="fill:#A55F58;" d="M210.232,231.164c-1.274,0.497-2.441,1.113-3.715,1.61c-6.477,2.365-13.117,3.588-19.889,5.144
						c-1.375,0.265-2.636,0.536-3.892,0.693c-5.135,0.625-9.829,1.501-14.939,1.675c-5.342,0.274-10.647-0.13-15.976-0.082
						c-10.293,0.107-20.36,0.114-30.545-1.626c9.233,10.71,17.129,15.765,17.129,15.765c2.826,4.758,1.949,9.426-0.035,15.283
						c2.854-2.906,6.217-4.996,9.318-7.774c1.424-1.169,3.043-1.76,4.681-2.69c8.076-4.658,15.757-8.317,24.31-11.362
						c0.345-0.094,0.929-0.402,1.274-0.497c0.571-0.082,1.042-0.396,1.619-0.591c0.232-0.101,0.672,0.15,0.904,0.049
						c2.002-1.364,4.06-1.704,6.113-1.932c4.563-0.543,8.856-2.348,13.314-0.971c6.436-0.611,12.805-0.007,19.137,1.006
						c13.298-6.819,21.254-17.959,25.324-30.904c-2.395,1.886-4.901,3.683-7.531,5.4
						C228.376,224.791,219.571,228.275,210.232,231.164z"/>
					<path style="fill:#BC7468;" d="M243.997,252.316l-25.898-6.981c0.317-0.155,0.63-0.312,0.941-0.471
						c-6.332-1.012-12.702-1.616-19.137-1.006c-4.458-1.378-8.751,0.427-13.314,0.971c-2.053,0.227-4.111,0.568-6.113,1.932
						c-0.232,0.101-0.672-0.15-0.904-0.049c-0.577,0.195-1.048,0.509-1.619,0.591c-0.345,0.094-0.929,0.402-1.274,0.497
						c-8.554,3.045-16.235,6.704-24.31,11.362c-1.638,0.93-3.257,1.522-4.681,2.69c-3.101,2.779-6.464,4.869-9.318,7.774
						c-2.232,6.588-5.864,14.68-7.208,26.098c-2.539,21.57,1.627,32.201-5.503,42.636c-2.271,3.323-4.096,7.161-5.531,10.849
						c0.699,1.485,1.458,2.946,2.011,4.52c0.207,0.351,0.647,0.602,0.742,0.947c0.396,1.042,0.799,1.971,1.421,3.025
						c0.201,0.464,0.164,1.142,0.372,1.494c0.754,0.721,1.282,1.43,1.791,2.478c0.32,0.358,0.647,0.602,0.967,0.96
						c0.314,0.471,0.509,1.048,0.824,1.518c2.124,2.61,4.391,4.661,6.39,7.491c1.156,1.65,2.802,2.647,4.077,4.19
						c0.861,0.841,1.853,1.348,2.72,2.076c0.427,0.477,0.516,0.935,0.943,1.412c1.187,1.085,2.625,1.731,4.039,2.828
						c2.5,1.95,4.786,3.662,7.543,5.06c0.22,0.125,0.565,0.031,0.904,0.05c1.111,0.401,1.859,1.235,3.334,1.203
						c0.345-0.094,0.547,0.37,0.879,0.502c0.791,0.043,1.469,0.08,2.354,0.469c0.44,0.251,1.017,0.056,1.463,0.193
						c6.687,2.067,13.278,1.748,20.139,0.65c0.345-0.094,0.703-0.415,1.042-0.396c1.469,0.081,2.963-0.291,4.356-0.895
						c2.435-1,4.964-1.655,7.311-3.113c4.58-2.922,8.602-5.989,11.913-10.568c0.984-1.419,1.85-2.732,2.954-4.258
						c0.245-0.327,0.709-0.528,0.841-0.861c0.248-0.747,0.658-1.359,0.955-2.005c-0.086-0.112-0.172-0.225-0.26-0.337
						c-0.201-0.464-0.17-1.029-0.372-1.494c-0.214-0.238-0.666-0.263-0.766-0.495c-0.396-1.042-1.025-1.983-1.54-2.918
						c-0.723-1.286-1.69-2.246-2.181-3.633c-0.189-0.69-1.2-0.859-1.734-1.455c-0.107-0.119,0.138-0.446,0.031-0.565
						c-0.107-0.119-0.339-0.019-0.565-0.031c-0.327-0.245-0.54-0.483-0.402-0.929c-0.113-0.006-0.339-0.019-0.452-0.025
						c0.006-0.113,0.019-0.339,0.025-0.452c-1.545-0.765-1.923-2.146-3.706-2.697l0.019-0.339c-0.998-0.395-1.74-1.342-2.769-1.172
						c0.006-0.113,0.019-0.339,0.025-0.452c-0.672-0.15-1.368,0.152-1.802-0.212c-0.867-0.728-1.344-0.3-2.009-0.563
						c-0.22-0.125-0.32-0.358-0.54-0.483c-0.446-0.138-0.91,0.064-1.356-0.074c-0.22-0.125-0.32-0.358-0.54-0.483
						c-0.672-0.15-1.35-0.187-1.902-0.444c-1.67-0.545-3.491-0.418-5.192-0.398c-0.119,0.107-0.364,0.433-0.477,0.427
						c-1.35-0.187-2.303,0.667-3.471,1.283c-0.345,0.095-0.672-0.15-1.017-0.056c-0.006,0.113-0.025,0.452-0.025,0.452
						c-0.91,0.064-1.933,0.121-2.819-0.268c-0.44-0.251-0.772-0.382-0.992-0.508c-0.333-0.132-0.528-0.709-0.855-0.954
						c-1.758-1.003-3.467-2.91-4.034-4.981c-0.201-0.464-0.754-0.721-0.848-1.066c-0.183-0.803-0.711-1.512-0.548-2.41
						c0.119-0.107-0.214-0.238-0.314-0.471c-0.057-1.023,0.105-1.921-0.178-2.957c-0.17-1.029-0.102-2.272,0.406-3.264
						c0.388-0.885,0.105-1.921,0.274-2.932c0.132-0.333,0.37-0.547,0.502-0.879c0.062-1.13,0.255-2.593,1.203-3.334
						c0.125-0.22-0.076-0.684,0.05-0.904c0.596-0.534,0.395-0.998,0.533-1.444c0.125-0.22,0.351-0.207,0.477-0.427
						c0.307-1.457,0.952-2.895,2.559-3.26c0.006-0.113,0.019-0.339,0.025-0.452c0.113,0.006,0.339,0.019,0.452,0.025
						c-0.006,0.113-0.025,0.452-0.025,0.452c4.853,0.379,9.58,0.978,14.476,0.567c2.052-0.228,3.723,0.317,5.775,0.09
						c0.345-0.094,0.59-0.421,0.929-0.402c7.809,0.201,15.707,0.861,23.51,1.175c0.452,0.025,1.035-0.283,1.494-0.371
						c0.91-0.063,1.915,0.218,2.831,0.042c1.714-0.246,3.176-0.053,4.765-0.079c0.458-0.088,1.036-0.283,1.494-0.372
						c3.057,0.054,6.096,0.447,9.159,0.389c0.113,0.006,0.358-0.32,0.471-0.314c2.385-0.096,4.84,0.605,7.138,0.051
						c1.029-0.17,1.701-0.02,2.498-0.09c0.113,0.006,0.32,0.358,0.427,0.477c0.785,0.156,1.576,0.2,2.373,0.13
						c0.345-0.094,0.703-0.415,1.042-0.396c5.543,0.19,11.181,0.726,16.724,0.917c0.113,0.006,0.358-0.32,0.477-0.427
						c0.424-0.04,0.85-0.041,1.276-0.02c0.087-1.013,0.23-2.031,0.479-3.057c0.463-2.241,0.361-4.514,0.598-6.768
						c0.006-0.113-0.433-0.364-0.427-0.477c0.006-0.113,0.245-0.327,0.477-0.427c0.345-0.094,0.559,0.144,0.904,0.05
						c0.232-0.101,0.357-0.32,0.477-0.427c1.023-0.057,2.135,0.344,2.944,0.048c0.464-0.201,1.029-0.17,1.488-0.258
						c0.232-0.101,0.245-0.327,0.477-0.427c0.458-0.088,1.011,0.169,1.362-0.039c2.215-1.125,4.204-2.263,6.52-3.156
						c0.351-0.207,0.602-0.647,0.954-0.855c0.232-0.101,0.672,0.15,0.904,0.05c0.351-0.208,0.608-0.76,0.947-0.742
						c2.642-0.649,5.096-1.987,7.436-3.333c0.232-0.101,0.672,0.15,0.904,0.049c0.351-0.207,0.602-0.647,0.954-0.854
						c0.232-0.101,0.672,0.15,0.904,0.049c0.006-0.113,0.019-0.339,0.025-0.452c1.036-0.283,1.983-1.025,2.912-1.427
						c0.584-0.308,0.709-0.528,1.305-1.062c0.113,0.006,0.339,0.018,0.452,0.025c0.006-0.113,0.019-0.339,0.025-0.452
						c0.113,0.006,0.339,0.019,0.452,0.025c0.006-0.113,0.019-0.339,0.025-0.452c1.124,0.175,1.211-1.407,2.334-1.232
						c0.006-0.113,0.019-0.339,0.025-0.452c0.553,0.257,0.828-0.635,1.381-0.378c0.006-0.113,0.019-0.339,0.025-0.452
						c0.553,0.257,0.828-0.635,1.381-0.378c0.006-0.113,0.019-0.339,0.025-0.452c0.113,0.006,0.339,0.019,0.452,0.025
						c-0.088-0.458,0.15-0.672,0.502-0.879c0.113,0.006,0.339,0.018,0.452,0.025c0.006-0.113,0.019-0.339,0.025-0.452
						c0.446,0.138,0.684-0.076,0.929-0.402c0.006-0.113,0.019-0.339,0.025-0.452c1.142-0.164,1.757-1.037,2.252-1.803
						c0.188-0.278,0.382-0.549,0.578-0.816C300.247,279.344,243.997,252.316,243.997,252.316z M200.779,253.793
						c0.024-0.012,0.055-0.027,0.094-0.046C200.834,253.766,200.803,253.782,200.779,253.793z M201.19,253.593
						c-0.073,0.036-0.139,0.068-0.195,0.095C201.05,253.661,201.115,253.629,201.19,253.593c0.051-0.025,0.106-0.052,0.164-0.08
						C201.295,253.542,201.24,253.568,201.19,253.593z M213.391,247.635c0.306-0.15,0.619-0.302,0.938-0.458
						C214.027,247.324,213.714,247.477,213.391,247.635z M215.93,246.394c0.243-0.119,0.47-0.23,0.679-0.331
						C216.38,246.175,216.154,246.285,215.93,246.394z M217.02,245.862c0.093-0.046,0.187-0.091,0.281-0.137
						C217.214,245.768,217.12,245.813,217.02,245.862z M217.402,245.676c0.114-0.055,0.215-0.105,0.302-0.148
						C217.602,245.578,217.502,245.627,217.402,245.676z M218.053,245.358c-0.045,0.022-0.089,0.043-0.133,0.065
						C217.978,245.395,218.023,245.373,218.053,245.358c0.015-0.007,0.029-0.014,0.044-0.021
						C218.091,245.339,218.077,245.346,218.053,245.358z"/>
					<path style="fill:#A55F58;" d="M270.401,322.412c-5.543-0.19-11.181-0.726-16.724-0.917c-0.339-0.019-0.697,0.302-1.042,0.396
						c-0.797,0.07-1.588,0.026-2.373-0.13c-0.107-0.119-0.314-0.471-0.427-0.477c-0.797,0.07-1.469-0.081-2.498,0.09
						c-2.297,0.554-4.752-0.147-7.138-0.051c-0.113-0.006-0.358,0.32-0.471,0.314c-3.063,0.059-6.102-0.334-9.159-0.389
						c-0.458,0.088-1.036,0.283-1.494,0.372c-1.588,0.026-3.051-0.167-4.765,0.079c-0.916,0.176-1.921-0.105-2.831-0.042
						c-0.458,0.088-1.042,0.396-1.494,0.371c-7.803-0.314-15.701-0.974-23.51-1.175c-0.339-0.019-0.584,0.308-0.929,0.402
						c-2.053,0.227-3.723-0.317-5.775-0.09c-4.896,0.412-9.624-0.187-14.476-0.567c0,0,0.019-0.339,0.025-0.452
						c-0.113-0.006-0.339-0.019-0.452-0.025c-0.006,0.113-0.019,0.339-0.025,0.452c-1.607,0.365-2.252,1.803-2.559,3.26
						c-0.125,0.22-0.351,0.207-0.477,0.427c-0.138,0.446,0.063,0.91-0.533,1.444c-0.125,0.22,0.076,0.684-0.05,0.904
						c-0.947,0.741-1.141,2.204-1.203,3.334c-0.132,0.333-0.37,0.547-0.502,0.879c-0.169,1.011,0.115,2.046-0.274,2.932
						c-0.508,0.992-0.576,2.235-0.406,3.264c0.283,1.036,0.121,1.933,0.178,2.957c0.101,0.232,0.433,0.364,0.314,0.471
						c-0.163,0.898,0.365,1.607,0.548,2.41c0.094,0.345,0.647,0.602,0.848,1.066c0.567,2.071,2.276,3.978,4.034,4.981
						c0.327,0.245,0.522,0.822,0.855,0.954c0.22,0.125,0.553,0.257,0.992,0.508c0.885,0.388,1.909,0.331,2.819,0.268
						c0,0,0.019-0.339,0.025-0.452c0.345-0.094,0.672,0.15,1.017,0.056c1.167-0.616,2.121-1.47,3.471-1.283
						c0.113,0.006,0.358-0.32,0.477-0.427c1.701-0.02,3.521-0.147,5.192,0.398c0.553,0.257,1.231,0.294,1.902,0.444
						c0.22,0.125,0.321,0.358,0.54,0.483c0.446,0.138,0.91-0.064,1.356,0.074c0.22,0.125,0.32,0.358,0.54,0.483
						c0.666,0.263,1.142-0.164,2.009,0.563c0.433,0.364,1.13,0.062,1.802,0.212c-0.006,0.113-0.019,0.339-0.025,0.452
						c1.029-0.17,1.771,0.777,2.769,1.172l-0.019,0.339c1.783,0.551,2.161,1.932,3.706,2.697c-0.006,0.113-0.019,0.339-0.025,0.452
						c0.113,0.006,0.339,0.019,0.452,0.025c-0.138,0.446,0.076,0.684,0.402,0.929c0.226,0.012,0.458-0.088,0.565,0.031
						c0.107,0.119-0.138,0.446-0.031,0.565c0.534,0.596,1.545,0.765,1.734,1.455c0.491,1.387,1.458,2.347,2.181,3.633
						c0.516,0.935,1.144,1.876,1.54,2.918c0.101,0.232,0.553,0.257,0.766,0.495c0.201,0.464,0.17,1.029,0.372,1.494
						c0.088,0.112,0.173,0.225,0.26,0.337c0.19-0.412,0.334-0.839,0.361-1.323c0.006-0.113,0.351-0.207,0.477-0.427
						c0.035-0.09,0.046-0.181,0.045-0.272c-1.433-0.748-2.442-2.378-3.225-3.755c0.783,1.378,1.792,3.008,3.225,3.755
						c-0.001-0.249-0.086-0.502,0.01-0.745c0.113,0.006,0.339,0.018,0.452,0.025c0.138-0.446-0.057-1.023,0.181-1.237
						c0.37-0.546,0.395-0.998,0.426-1.563c-0.031,0.565-0.056,1.017-0.426,1.563c-0.238,0.214-0.043,0.791-0.181,1.237
						c-0.113-0.006-0.339-0.018-0.452-0.025c-0.096,0.243-0.012,0.496-0.01,0.745c0.271,0.141,0.556,0.251,0.859,0.322
						c-0.138,0.446,0.07,0.797,0.402,0.929c2.675,0.827,4.735,2.526,7.046,3.786c0.333,0.132,0.684-0.076,1.017,0.056
						c1.853,1.348,3.963,2.144,6.11,2.262c0.339,0.019,0.546,0.37,0.879,0.501c2.938,0.161,5.857,0.661,8.751-0.427
						c0.458-0.088,0.898,0.163,1.356,0.074c0.345-0.094,0.703-0.415,1.042-0.396c2.04-0.001,3.891-0.693,5.85-1.266
						c0.458-0.088,0.941-0.629,1.406-0.83c2.019-0.552,3.888-1.307,5.709-2.237c-0.724-4.337-0.749-8.201-0.206-10.941
						c1.984-10.007,6.195-23.171,6.195-23.171l12.375-11.814c0.019-0.346,0.043-0.692,0.072-1.039
						c-0.426-0.02-0.852-0.02-1.276,0.02C270.759,322.091,270.514,322.418,270.401,322.412z"/>
					<path style="fill:#BC7468;" d="M113.796,371.519c0.275-0.892,0.105-1.921,0.268-2.819c0.132-0.333,0.376-0.659,0.508-0.992
						c0.056-1.017,0.218-1.915,0.607-2.8c0.389-0.885,0.105-1.921,0.274-2.932c0.011-0.01,0.024-0.02,0.037-0.03
						c-2.907-19.329-18.868-31.777-26.269-39.553c-7.698-8.089-17.597-17.268-21.964-28.362
						c-4.367-11.094,5.056-22.111,12.955-25.949c7.899-3.838,12.566,1.794,17.312-2.292c4.747-4.086,1.004-10.072-11.252-13.807
						c-12.256-3.735-28.046,8.763-32.229,19.075c-4.183,10.312-2.635,24.581,2.351,35.494c4.987,10.913,22.266,27.285,32.875,35.773
						c10.61,8.487,8.472,24.121,12.089,32.247s9.315,10.037,9.315,10.037c0.52,0.882,1.02,1.739,1.503,2.572
						C112.181,381.923,112.306,376.721,113.796,371.519z"/>
					<path style="fill:#A55F58;" d="M276.716,401.34c-14.241-6.073-21.08-20.908-22.999-32.41c-1.821,0.93-3.69,1.685-5.709,2.237
						c-0.464,0.201-0.947,0.741-1.406,0.83c-1.958,0.573-3.81,1.265-5.85,1.266c-0.339-0.019-0.697,0.302-1.042,0.396
						c-0.458,0.088-0.898-0.163-1.356-0.074c-2.893,1.088-5.813,0.588-8.751,0.427c-0.333-0.132-0.54-0.483-0.879-0.501
						c-2.147-0.118-4.257-0.913-6.11-2.262c-0.333-0.132-0.684,0.076-1.017-0.056c-2.311-1.26-4.371-2.96-7.046-3.786
						c-0.333-0.132-0.54-0.483-0.402-0.929c-0.302-0.071-0.588-0.181-0.859-0.322c0.001,0.092-0.01,0.183-0.045,0.272
						c-0.125,0.22-0.471,0.314-0.477,0.427c-0.027,0.484-0.171,0.911-0.361,1.323c4.394,5.721,6.917,12.199,8.775,18.859
						c-1.858-6.66-4.382-13.138-8.775-18.859c-0.297,0.646-0.707,1.258-0.955,2.005c-0.132,0.333-0.596,0.534-0.841,0.861
						c-1.104,1.526-1.969,2.839-2.954,4.258c-3.311,4.579-7.333,7.645-11.913,10.568c-2.347,1.458-4.876,2.113-7.311,3.113
						c-1.393,0.604-2.887,0.975-4.356,0.895c-0.339-0.019-0.696,0.302-1.042,0.396c-6.861,1.098-13.452,1.416-20.139-0.65
						c-0.446-0.138-1.023,0.057-1.463-0.193c-0.885-0.389-1.563-0.426-2.354-0.469c-0.333-0.132-0.534-0.596-0.879-0.502
						c-1.475,0.033-2.223-0.802-3.334-1.203c-0.339-0.019-0.684,0.076-0.904-0.05c-2.757-1.398-5.043-3.11-7.543-5.06
						c-1.413-1.098-2.851-1.743-4.039-2.828c-0.427-0.477-0.515-0.935-0.943-1.412c-0.867-0.728-1.859-1.235-2.72-2.076
						c-1.275-1.543-2.921-2.54-4.077-4.19c-1.998-2.83-4.266-4.881-6.39-7.491c-0.314-0.47-0.509-1.048-0.824-1.518
						c-0.32-0.358-0.647-0.602-0.967-0.96c-0.509-1.048-1.037-1.757-1.791-2.478c-0.207-0.351-0.17-1.029-0.372-1.494
						c-0.622-1.054-1.025-1.983-1.421-3.025c-0.094-0.345-0.534-0.596-0.742-0.947c-0.553-1.574-1.312-3.035-2.011-4.52
						c-3.071,7.892-4.349,15.096-4.349,15.096c-0.073-0.798-0.172-1.583-0.288-2.359c-0.013,0.01-0.026,0.02-0.037,0.03
						c-0.169,1.011,0.115,2.046-0.274,2.932c-0.389,0.885-0.551,1.783-0.607,2.8c-0.132,0.333-0.376,0.659-0.508,0.992
						c-0.163,0.898,0.008,1.927-0.268,2.819c-1.49,5.203-1.616,10.405-1.619,15.661c10.274,17.726,12.985,24.872,39.625,35.329
						c27.893,10.948,51.821,11.738,64.495,10.533c12.674-1.205,7.247-10.159,7.247-10.159c14.064-2,28.383-8.054,28.383-8.054
						L276.716,401.34z"/>
				</g>
				<g>
					<path style="fill:#CE9972;" d="M125.605,166.028c-0.547-0.03-0.982,0.352-1.012,0.889l-0.395,7.215
						c-0.029,0.537,0.362,0.964,0.909,0.994c0.547,0.03,0.982-0.352,1.012-0.889l0.395-7.215
						C126.544,166.485,126.153,166.058,125.605,166.028z"/>
					<path style="fill:#CE9972;" d="M119.341,164.78c-0.547-0.03-0.982,0.352-1.012,0.889l-0.445,8.117
						c-0.029,0.537,0.361,0.964,0.909,0.994c0.547,0.03,0.982-0.352,1.012-0.889l0.445-8.117
						C120.28,165.238,119.889,164.81,119.341,164.78z"/>
					<path style="fill:#CE9972;" d="M103.925,154.475c-0.462-0.265-0.987-0.126-1.249,0.33c-1.106,1.928-1.826,4.027-2.14,6.24
						c-0.047,0.331,0.067,0.631,0.313,0.823c0.153,0.12,0.346,0.187,0.546,0.198c0.152,0.008,0.308-0.016,0.454-0.075
						c0.332-0.134,0.551-0.415,0.602-0.773c0.27-1.902,0.895-3.718,1.857-5.395C104.613,155.291,104.353,154.72,103.925,154.475z"/>
					<path style="fill:#CE9972;" d="M145.528,146.384c0.051,0.011,0.101,0.017,0.15,0.02c0.434,0.024,0.797-0.252,0.89-0.699v0
						c0.379-1.816,1.065-3.514,2.039-5.049c0.188-0.296,0.206-0.638,0.049-0.938c-0.166-0.317-0.502-0.531-0.854-0.546
						c-0.329-0.014-0.624,0.145-0.808,0.436c-1.098,1.73-1.864,3.606-2.275,5.576C144.591,145.802,145.029,146.28,145.528,146.384z"
						/>
					<path style="fill:#CE9972;" d="M139.784,144.231c0.308-0.081,0.536-0.315,0.625-0.642c0.571-2.102,1.43-4.096,2.552-5.926
						c0.185-0.301,0.197-0.647,0.033-0.948c-0.172-0.316-0.509-0.524-0.86-0.535c-0.325-0.008-0.614,0.154-0.793,0.446
						c-1.229,2.005-2.161,4.157-2.769,6.396c-0.094,0.344-0.006,0.684,0.24,0.933c0.183,0.184,0.431,0.292,0.681,0.306
						C139.59,144.265,139.689,144.256,139.784,144.231z"/>
					<path style="fill:#CE9972;" d="M187.014,139.365c0.06,0.003,0.121,0,0.183-0.009c0.344-0.053,0.65-0.305,0.781-0.642
						c0.126-0.325,0.07-0.671-0.153-0.948l-3.198-3.975c-0.213-0.264-0.516-0.388-0.833-0.339c-0.344,0.053-0.65,0.305-0.781,0.642
						c-0.126,0.325-0.07,0.671,0.153,0.948l3.198,3.975C186.535,139.23,186.765,139.352,187.014,139.365z"/>
					<path style="fill:#CE9972;" d="M190.248,136.828c0.17,0.218,0.401,0.343,0.652,0.357c0.055,0.003,0.111,0.001,0.167-0.007
						c0.342-0.048,0.651-0.296,0.787-0.632c0.132-0.327,0.082-0.677-0.139-0.96l-3.345-4.288c-0.323-0.413-0.86-0.477-1.278-0.151
						c-0.39,0.304-0.568,0.909-0.189,1.393L190.248,136.828z"/>
					<path style="fill:#CE9972;" d="M160.658,111.8l5.293,3.793c0.157,0.112,0.328,0.172,0.498,0.181
						c0.3,0.016,0.594-0.124,0.796-0.405c0.279-0.389,0.301-1-0.209-1.365l-5.293-3.793c-0.434-0.311-0.978-0.217-1.294,0.224
						C160.17,110.825,160.149,111.435,160.658,111.8z"/>
					<path style="fill:#CE9972;" d="M218.479,133.8l-4.358-3.802c-0.478-0.417-1.111-0.268-1.447,0.117
						c-0.334,0.382-0.299,0.902,0.083,1.235l4.358,3.802c0.185,0.161,0.392,0.238,0.597,0.249c0.326,0.018,0.644-0.13,0.85-0.366
						C218.896,134.652,218.861,134.133,218.479,133.8z"/>
					<path style="fill:#CE9972;" d="M218.9,125.755c-0.245-0.255-0.578-0.353-0.911-0.27c-0.349,0.087-0.637,0.36-0.734,0.697
						c-0.09,0.312-0.005,0.632,0.232,0.878l5.544,5.754c0.176,0.183,0.396,0.285,0.63,0.298c0.092,0.005,0.187-0.004,0.281-0.027
						c0.349-0.087,0.638-0.36,0.734-0.697c0.09-0.312,0.005-0.632-0.232-0.878L218.9,125.755z"/>
					<path style="fill:#CE9972;" d="M143.788,265.467c-2.805,0.794-5.247,2.426-7.065,4.719c-0.322,0.406-0.258,0.937,0.151,1.261
						c0.168,0.133,0.38,0.214,0.598,0.226c0.292,0.016,0.595-0.093,0.816-0.372c1.502-1.896,3.617-3.305,5.956-3.967
						c0.589-0.167,0.802-0.757,0.668-1.232C144.767,265.591,144.294,265.323,143.788,265.467z"/>
					<path style="fill:#CE9972;" d="M141.775,274.522c-2.543,0.946-4.945,2.287-7.14,3.985c-0.414,0.32-0.479,0.856-0.156,1.274
						c0.177,0.228,0.456,0.385,0.755,0.401c0.214,0.012,0.438-0.049,0.641-0.206c2.006-1.553,4.258-2.799,6.693-3.705
						c0.476-0.177,0.693-0.653,0.515-1.131C142.906,274.663,142.368,274.301,141.775,274.522z"/>
					<path style="fill:#CE9972;" d="M157.654,298.274L157.654,298.274l1.501-7.581c0.071-0.356-0.051-0.712-0.326-0.953
						c-0.276-0.241-0.658-0.328-0.975-0.22c-0.286,0.097-0.486,0.337-0.55,0.659l-1.501,7.581c-0.124,0.624,0.323,1.1,0.825,1.199
						c0.047,0.009,0.094,0.015,0.139,0.018C157.203,299.001,157.565,298.722,157.654,298.274z"/>
					<path style="fill:#CE9972;" d="M163.609,290.244L163.609,290.244c0-0.633-0.518-0.973-0.999-0.974
						c-0.535,0-0.923,0.384-0.923,0.912c0.001,2.445,0.117,4.958,0.342,7.469c0.041,0.455,0.37,0.77,0.806,0.794
						c0.047,0.003,0.095,0.002,0.145-0.003c0.509-0.046,1.001-0.471,0.945-1.103C163.716,295.028,163.61,292.64,163.609,290.244z"/>
					<path style="fill:#CE9972;" d="M180.871,289.382c0.021,0.001,0.042,0.002,0.064,0.001c0.362-0.003,0.706-0.2,0.878-0.501
						c0.158-0.277,0.149-0.604-0.023-0.896l-2.982-5.076c-0.321-0.546-0.939-0.58-1.357-0.334c-0.461,0.271-0.601,0.797-0.333,1.253
						l2.982,5.076C180.269,289.192,180.548,289.364,180.871,289.382z"/>
					<path style="fill:#CE9972;" d="M202.6,262.303c-1.966-1.297-4.086-2.389-6.301-3.246c-0.317-0.123-0.643-0.077-0.894,0.125
						c-0.272,0.219-0.412,0.591-0.356,0.947c0.053,0.342,0.274,0.612,0.604,0.74c2.053,0.794,4.033,1.817,5.887,3.04
						c0.15,0.099,0.312,0.151,0.474,0.16c0.323,0.018,0.642-0.138,0.843-0.443C203.159,263.167,203.049,262.599,202.6,262.303z"/>
					<path style="fill:#CE9972;" d="M206.02,257.478l-5.207-2.707c-0.557-0.29-1.131,0.001-1.364,0.45
						c-0.238,0.457-0.08,0.961,0.375,1.197l5.207,2.707c0.137,0.071,0.275,0.107,0.408,0.115c0.41,0.022,0.78-0.226,0.956-0.564
						C206.632,258.219,206.475,257.715,206.02,257.478z"/>
					<path style="fill:#CE9972;" d="M183.84,266.964c0.184,0.01,0.367-0.035,0.536-0.134c0.313-0.184,0.513-0.526,0.51-0.871
						c-0.003-0.316-0.172-0.593-0.465-0.759l-6.152-3.481c-0.535-0.303-1.107-0.038-1.351,0.392
						c-0.261,0.461-0.12,0.983,0.337,1.242l6.152,3.482C183.545,266.913,183.692,266.956,183.84,266.964z"/>
					<path style="fill:#CE9972;" d="M184.353,364.371c-0.31-0.179-0.661-0.18-0.965-0.005c-0.314,0.181-0.516,0.522-0.516,0.869
						c0,0.318,0.168,0.598,0.461,0.767c1.676,0.966,3.03,2.265,4.023,3.859c0.189,0.302,0.478,0.445,0.771,0.461
						c0.217,0.012,0.435-0.045,0.615-0.158c0.444-0.277,0.567-0.798,0.293-1.239C187.84,367.005,186.264,365.473,184.353,364.371z"
						/>
					<path style="fill:#CE9972;" d="M188.162,361.834c-0.28-0.198-0.61-0.233-0.906-0.096c-0.319,0.147-0.546,0.473-0.579,0.831
						c-0.031,0.341,0.116,0.653,0.404,0.857c1.707,1.205,3.073,2.862,3.951,4.79c0.141,0.31,0.406,0.505,0.726,0.536
						c0.013,0.001,0.025,0.002,0.038,0.003c0.335,0.018,0.677-0.148,0.879-0.431c0.202-0.282,0.233-0.63,0.085-0.953
						C191.756,365.164,190.166,363.249,188.162,361.834z"/>
					<path style="fill:#CE9972;" d="M202.023,383.431c-0.082-0.341-0.315-0.592-0.641-0.689c-0.344-0.102-0.731-0.011-0.987,0.231
						c-0.238,0.226-0.329,0.548-0.249,0.883l1.429,5.974c0.102,0.428,0.451,0.707,0.867,0.729c0.099,0.005,0.201-0.004,0.305-0.028
						c0.525-0.126,0.828-0.61,0.705-1.126L202.023,383.431z"/>
					<path style="fill:#CE9972;" d="M175.738,388.6L175.738,388.6c-0.237-0.478-0.784-0.655-1.271-0.414
						c-0.495,0.246-0.687,0.798-0.446,1.283l2.792,5.618c0.154,0.309,0.431,0.499,0.761,0.519c0.002,0,0.005,0,0.007,0
						c0.351,0.019,0.703-0.158,0.9-0.454c0.186-0.281,0.204-0.622,0.048-0.935L175.738,388.6z"/>
					<path style="fill:#CE9972;" d="M182.266,387.306c-0.12-0.341-0.406-0.585-0.765-0.652c-0.361-0.067-0.733,0.054-0.951,0.308
						c-0.197,0.23-0.247,0.539-0.137,0.849l1.955,5.536c0.121,0.341,0.406,0.585,0.765,0.652c0.046,0.009,0.093,0.014,0.139,0.017
						c0.314,0.017,0.622-0.103,0.812-0.325c0.197-0.23,0.247-0.539,0.137-0.848L182.266,387.306z"/>
					<path style="fill:#CE9972;" d="M125.808,356.25c-0.262-0.252-0.645-0.354-0.975-0.258c-0.301,0.087-0.519,0.323-0.599,0.648
						l-2.079,8.43c-0.086,0.35,0.012,0.693,0.269,0.94c0.183,0.176,0.425,0.279,0.667,0.292c0.104,0.006,0.208-0.005,0.308-0.034
						c0.301-0.087,0.519-0.323,0.599-0.648l2.079-8.43C126.163,356.84,126.065,356.497,125.808,356.25z"/>
					<path style="fill:#CE9972;" d="M129.486,358.459c-0.544-0.012-0.947,0.368-0.958,0.904v0c-0.034,1.602-0.531,3.073-1.476,4.371
						c-0.313,0.43-0.224,0.972,0.212,1.289c0.159,0.116,0.355,0.189,0.557,0.2c0.292,0.016,0.597-0.098,0.816-0.399
						c1.145-1.573,1.772-3.434,1.814-5.383C130.464,358.817,129.968,358.469,129.486,358.459z"/>
					<path style="fill:#CE9972;" d="M150.664,349.618c-0.317,0.001-0.595,0.17-0.763,0.463l-4.008,7.014
						c-0.178,0.311-0.178,0.664-0.001,0.967c0.173,0.297,0.49,0.493,0.817,0.511c0.018,0.001,0.035,0.001,0.053,0.001
						c0.317-0.001,0.595-0.17,0.763-0.463l4.008-7.014c0.178-0.311,0.178-0.664,0.001-0.967
						C151.351,349.818,151.011,349.616,150.664,349.618z"/>
					<path style="fill:#CE9972;" d="M146.067,395.097c-0.547-0.03-0.982,0.352-1.012,0.889l-0.469,8.568
						c-0.029,0.537,0.361,0.964,0.909,0.994c0.547,0.03,0.982-0.352,1.012-0.889l0.469-8.568
						C147.006,395.554,146.615,395.127,146.067,395.097z"/>
					<path style="fill:#CE9972;" d="M153.321,394.815c-0.09-0.342-0.334-0.591-0.668-0.682c-0.348-0.094-0.733,0.003-0.981,0.249
						c-0.229,0.227-0.31,0.546-0.223,0.876l1.824,6.903c0.09,0.343,0.334,0.591,0.668,0.682c0.07,0.019,0.141,0.03,0.212,0.034
						c0.285,0.016,0.571-0.086,0.769-0.283c0.229-0.227,0.31-0.546,0.223-0.876L153.321,394.815z"/>
					<path style="fill:#CE9972;" d="M235.832,389.649c-0.139-0.31-0.402-0.506-0.721-0.538c-0.345-0.036-0.707,0.132-0.918,0.425
						c-0.203,0.282-0.236,0.63-0.09,0.955c0.657,1.459,1.015,3.001,1.064,4.583c0.018,0.584,0.488,0.932,0.96,0.958
						c0.029,0.002,0.059,0.002,0.088,0.001c0.522-0.016,0.889-0.404,0.873-0.922C237.029,393.207,236.606,391.37,235.832,389.649z"
						/>
					<path style="fill:#CE9972;" d="M241.502,385.388c-0.176-0.308-0.475-0.485-0.823-0.486c-0.361-0.001-0.708,0.193-0.883,0.494
						c-0.162,0.278-0.157,0.607,0.012,0.903c1.441,2.514,2.173,5.358,2.117,8.225c-0.007,0.353,0.158,0.657,0.452,0.835
						c0.146,0.088,0.311,0.137,0.478,0.146c0.186,0.01,0.373-0.029,0.535-0.118c0.284-0.157,0.451-0.443,0.458-0.785
						C243.91,391.36,243.099,388.174,241.502,385.388z"/>
					<path style="fill:#CE9972;" d="M224.15,344.497c-0.206-0.266-0.503-0.395-0.815-0.352c-0.341,0.046-0.651,0.293-0.789,0.629
						c-0.135,0.328-0.086,0.679,0.134,0.963l3.714,4.807c0.173,0.224,0.41,0.346,0.656,0.36c0.209,0.012,0.425-0.055,0.617-0.203
						c0.393-0.303,0.574-0.909,0.197-1.396L224.15,344.497z"/>
					<path style="fill:#CE9972;" d="M229.488,339.951c-0.197-0.305-0.517-0.471-0.878-0.453c-0.364,0.018-0.701,0.224-0.856,0.527
						c-0.141,0.275-0.119,0.593,0.061,0.872l3.326,5.164c0.191,0.297,0.479,0.436,0.769,0.452c0.224,0.012,0.449-0.049,0.634-0.168
						c0.435-0.28,0.548-0.798,0.27-1.23L229.488,339.951z"/>
				</g>
				<g>
					<path style="fill:#BF8862;" d="M206.517,232.773c-6.477,2.365-13.117,3.588-19.889,5.144c-1.375,0.265-2.636,0.536-3.892,0.693
						c-5.135,0.625-9.829,1.501-14.939,1.675c-1.192,0.061-2.382,0.087-3.571,0.093c6.441,4.394,11.56,5.889,11.56,5.889
						c4.289-1.346,9.827-1.991,15.35-2.25c2.934-0.589,5.814-1.072,8.767-0.16c4.89-0.464,9.742-0.226,14.569,0.359
						c9.17-7.77,15.328-15.561,19.346-23.01c-7.532,4.399-15.351,7.41-23.585,9.956
						C208.958,231.661,207.791,232.277,206.517,232.773z"/>
					<path style="fill:#E2AB86;" d="M234.335,170.962c-0.323-10.58-11.481-29.867-23.857-26.927
						c-12.376,2.94-12.585,11.07-21.26,14.212c-4.451,1.613-15.608-9.901-33.787-0.043c-18.179,9.858-22.324,27.722-12.487,54.534
						c5.197,14.164,14.068,22.72,21.281,27.64c1.189-0.006,2.379-0.032,3.571-0.093c5.11-0.173,9.805-1.049,14.939-1.675
						c1.255-0.158,2.517-0.429,3.892-0.693c6.772-1.556,13.413-2.778,19.889-5.144c1.274-0.497,2.441-1.113,3.715-1.61
						c8.234-2.547,16.053-5.558,23.585-9.956C248.617,193.764,234.335,170.962,234.335,170.962z"/>
					<path style="fill:#E2AB86;" d="M199.903,243.858c-2.953-0.913-5.833-0.429-8.767,0.16c11.467-0.536,22.865,0.598,22.865,0.598
						c0.159-0.133,0.314-0.266,0.471-0.399C209.645,243.632,204.793,243.394,199.903,243.858z"/>
					<g>
						<path style="fill:#E2AB86;" d="M118.021,188.877l14.746,36.28c0,0-22.787,19.664-39.798-0.042
							C75.958,205.408,97.493,183.841,118.021,188.877z"/>
						<g>
							<path style="fill:#5B281B;" d="M123.231,216.728L123.231,216.728c-1.526-1.081-3.298-1.743-4.989-1.862
								c-2.005-0.142-3.775,0.475-5.123,1.784c-1.035,1.005-1.63,2.419-1.63,3.879c0,0.898,0.219,1.746,0.631,2.479
								c-2.396,0.464-5.428,0.483-8.025-1.267c-2.303-1.552-3.993-4.128-4.638-7.069c-0.611-2.786-0.273-5.735,0.926-8.091
								c1.216-2.387,3.369-4.3,6.064-5.387c2.956-1.192,6.267-1.208,9.083-0.043c0.685,0.284,1.417-0.023,1.703-0.714
								c0.301-0.727-0.023-1.528-0.737-1.824c-3.064-1.267-6.604-1.383-9.969-0.326c-3.38,1.062-6.209,3.195-7.966,6.006
								c-1.788,2.86-2.478,6.383-1.944,9.919c0.535,3.541,2.239,6.699,4.798,8.89c2.024,1.733,4.561,2.694,7.359,2.847
								c2.012,0.11,4.159-0.197,6.347-0.935c0.555-0.187,0.935-0.667,0.967-1.222c0.033-0.558-0.29-1.082-0.822-1.334
								c-0.712-0.337-1.066-1.187-1.1-1.879c-0.041-0.817,0.364-1.624,1.109-2.214c1.272-1.007,3.625-1.378,6.414,0.598
								c0.614,0.435,1.41,0.295,1.85-0.326C123.988,218.008,123.852,217.169,123.231,216.728z"/>
							<path style="fill:#5B281B;" d="M173.999,192.5c-0.496-0.573-1.307-0.627-1.888-0.125c-0.581,0.502-0.648,1.344-0.153,1.916h0
								c0.799,0.923,0.646,2.538,0.524,3.835c-0.168,1.775-0.705,3.017-1.642,3.797c-2.057,1.711-5.054,1.203-6.952-0.182
								c-1.224-0.893-2.248-2.182-3.045-3.83c-0.21-0.434-0.612-0.713-1.077-0.747c-0.491-0.038-0.988,0.206-1.267,0.618
								c-0.269,0.396-0.302,0.895-0.089,1.336c0.859,1.777,2.048,3.323,3.44,4.468c1.58,1.301,3.389,2.04,5.236,2.142
								c0.025,0.001,0.05,0.003,0.075,0.004c1.865,0.085,3.678-0.441,5.106-1.481c1.544-1.124,2.499-2.876,2.84-5.206
								C175.412,196.947,175.563,194.308,173.999,192.5z"/>
							<path style="fill:#5B281B;" d="M212.065,185.492c1.58,1.301,3.389,2.04,5.236,2.142c0.025,0.001,0.05,0.003,0.075,0.004
								c1.864,0.085,3.677-0.441,5.105-1.481c1.544-1.124,2.499-2.876,2.84-5.206c0.306-2.097,0.457-4.736-1.107-6.544
								c-0.316-0.365-0.779-0.531-1.238-0.443c-0.483,0.093-0.901,0.456-1.063,0.925c-0.156,0.451-0.059,0.94,0.261,1.31
								c0.799,0.923,0.646,2.537,0.524,3.835c-0.168,1.775-0.705,3.018-1.642,3.797c-2.057,1.711-5.054,1.203-6.952-0.182
								c-1.224-0.893-2.248-2.182-3.044-3.83c-0.21-0.434-0.612-0.713-1.077-0.748c-0.489-0.034-0.987,0.206-1.267,0.618
								c-0.269,0.396-0.302,0.895-0.089,1.336C209.484,182.801,210.674,184.346,212.065,185.492z"/>
							<path style="fill:#5B281B;" d="M189.557,193.957c2.214,2.025,4.713,3.693,7.431,4.963c0.725,2.834,1.083,5.733,1.064,8.631
								c-2.181,0.072-4.398-0.606-6.18-1.907c-0.604-0.441-1.396-0.314-1.842,0.296c-0.459,0.629-0.335,1.476,0.284,1.928
								c1.98,1.446,4.334,2.266,6.717,2.396c1.321,0.072,2.652-0.067,3.932-0.429c3.344-0.946,6.159-3.257,7.722-6.343
								c0.312-0.616,0.157-1.495-0.642-1.9c-0.65-0.329-1.388-0.088-1.716,0.56c-1.179,2.328-3.188,4.093-5.562,4.904
								c-0.026-3.243-0.477-6.452-1.345-9.552c-0.012-0.045-0.027-0.088-0.044-0.131c0.837-2.327,1.532-4.717,2.069-7.108
								c0.11-0.49-0.044-0.985-0.412-1.324c-0.371-0.341-0.905-0.47-1.362-0.328c-0.433,0.135-0.741,0.479-0.845,0.945
								c-0.48,2.135-1.089,4.269-1.815,6.355c-2.008-1.048-3.87-2.35-5.544-3.88c-0.37-0.338-0.876-0.451-1.352-0.3
								c-0.48,0.152-0.857,0.552-0.96,1.02C189.059,193.196,189.205,193.635,189.557,193.957z"/>
							<path style="fill:#5B281B;" d="M223.077,249.039c1.112,0.215,2.224,0.43,3.335,0.642l16.257,3.1
								c0.499,0.095,0.995-0.079,1.328-0.465c0.335-0.389,0.446-0.911,0.288-1.363c-0.147-0.421-0.496-0.713-0.96-0.801
								c-2.865-0.546-5.778-1.114-8.594-1.662c-6.785-1.322-13.801-2.688-20.73-3.874c-8.341-1.427-18.209-2.67-28.161-1.075
								c-5.21,0.835-9.987,2.398-14.197,4.644c-0.431,0.23-0.697,0.651-0.713,1.128c-0.017,0.496,0.243,0.985,0.66,1.245
								c0.187,0.117,0.395,0.181,0.607,0.192c0.239,0.013,0.483-0.04,0.708-0.161c6.802-3.629,15.139-5.331,24.778-5.057
								C206.22,245.776,214.79,247.435,223.077,249.039z"/>
							<path style="fill:#5B281B;" d="M212.711,367.852c1.793,2.973,3.103,6.124,3.893,9.367c0.146,0.598,0.652,0.996,1.237,1.028
								c0.137,0.008,0.278-0.005,0.419-0.039c0.742-0.181,1.167-0.871,0.989-1.605c-1.525-6.26-4.836-12.184-9.576-17.132
								c-3.653-3.813-9.633-8.707-17.374-10.365c-4.109-0.88-7.984-0.643-11.518,0.706c-0.444,0.17-0.74,0.523-0.812,0.969
								c-0.076,0.471,0.128,0.981,0.52,1.299c0.39,0.317,0.904,0.399,1.374,0.22c2.761-1.054,5.835-1.284,9.135-0.685
								c2.877,0.522,5.913,1.692,8.781,3.383C204.961,358.055,209.554,362.62,212.711,367.852z"/>
							<path style="fill:#5B281B;" d="M218.678,392.153c0.295,0.016,0.588-0.057,0.826-0.216c0.373-0.25,0.569-0.664,0.538-1.137
								c-0.233-3.53-1.54-6.816-3.78-9.504c-0.308-0.369-0.763-0.542-1.22-0.463c-0.482,0.083-0.905,0.44-1.077,0.908
								c-0.166,0.452-0.078,0.948,0.237,1.325c1.708,2.05,2.789,4.59,3.078,7.207c-0.299-0.593-0.641-1.168-1.027-1.722
								c-0.271-0.389-0.683-0.591-1.131-0.551c-0.473,0.041-0.916,0.362-1.13,0.819c-0.215,0.459-0.17,0.98,0.119,1.394
								c1.255,1.797,1.94,4.012,1.93,6.236c-0.002,0.493,0.247,0.934,0.666,1.179c0.198,0.116,0.421,0.18,0.645,0.192
								c0.266,0.014,0.533-0.043,0.762-0.174c0.399-0.228,0.638-0.649,0.64-1.127c0.007-1.574-0.255-3.119-0.768-4.585
								c0.04,0.025,0.079,0.049,0.122,0.07C218.289,392.093,218.484,392.143,218.678,392.153z"/>
							<path style="fill:#5B281B;" d="M208.429,420.667c-0.427-0.204-0.884-0.177-1.254,0.076c-0.391,0.268-0.619,0.766-0.58,1.27
								c0.039,0.505,0.334,0.938,0.79,1.156c2.757,1.322,4.238,4.916,3.232,7.849c-0.247,0.72,0.118,1.452,0.847,1.702
								c0.133,0.046,0.267,0.071,0.397,0.079c0.59,0.032,1.124-0.314,1.327-0.906c0.713-2.079,0.607-4.388-0.297-6.501
								C211.994,423.294,210.409,421.616,208.429,420.667z"/>
							<path style="fill:#5B281B;" d="M215.063,420.669c-0.669-0.299-1.4-0.017-1.7,0.654c-0.325,0.727-0.02,1.547,0.694,1.865
								c2.342,1.046,3.781,3.791,3.346,6.386c-0.12,0.718,0.332,1.35,1.052,1.471c0.061,0.01,0.12,0.017,0.178,0.02
								c0.79,0.043,1.357-0.534,1.463-1.167C220.725,426.134,218.609,422.252,215.063,420.669z"/>
							<path style="fill:#5B281B;" d="M251.112,413.696c-0.459-0.217-0.981-0.175-1.397,0.113h0
								c-6.146,4.25-13.679,5.463-19.556,6.044c-2.193,0.217-4.357,0.351-5.997,0.443c-0.527,0.03-1.049,0.373-1.243,0.933
								c-1.648-3.843-4.497-7.199-8.151-9.459c-1.057-0.654-2.17-1.204-3.322-1.645c2.849-2.016,4.721-4.421,5.702-7.314
								c0.156-0.46,0.063-0.945-0.247-1.3c-0.326-0.371-0.85-0.549-1.336-0.452c-0.464,0.092-0.834,0.423-0.99,0.883
								c-2.108,6.213-9.231,8.641-14.432,10.414c-0.477,0.162-0.82,0.555-0.918,1.05c-0.098,0.495,0.07,1.017,0.428,1.331
								c0.339,0.296,0.791,0.379,1.241,0.225c2.564-0.874,5.25-1.832,7.737-3.132c0.163,0.199,0.387,0.349,0.653,0.428
								c4.975,1.493,9.175,5.332,11.238,10.27c0.566,1.356,0.954,2.816,1.151,4.339c0.061,0.468,0.345,0.851,0.762,1.025
								c0.137,0.057,0.284,0.089,0.432,0.097c0.334,0.018,0.681-0.084,0.957-0.295c0.394-0.301,0.59-0.776,0.526-1.271
								c-0.156-1.204-0.43-2.388-0.807-3.539c0.148,0.071,0.313,0.116,0.489,0.125c0.051,0.003,0.103,0.003,0.156,0
								c7.17-0.402,14.75-1.042,21.677-4.007c1.915-0.819,3.767-1.844,5.505-3.046c0.389-0.269,0.592-0.68,0.555-1.126
								C251.888,414.35,251.576,413.916,251.112,413.696z"/>
							<path style="fill:#5B281B;" d="M109.986,382.737c-2.817-1.27-6.602-4.427-8.638-12.254c-0.63-2.423-1.032-4.958-1.421-7.41
								c-0.603-3.801-1.226-7.73-2.715-11.437c-3.619-9.014-11.191-15.224-18.513-21.229c-1.01-0.828-2.054-1.685-3.058-2.525
								c-5.136-4.3-8.745-7.93-11.703-11.77c-3.675-4.771-6.454-9.849-8.26-15.095c-1.906-5.535-2.69-11.012-2.332-16.282
								c0.345-5.079,1.796-10.146,4.194-14.652c2.451-4.604,5.822-8.524,9.75-11.336c4.963-3.554,10.674-5.268,15.667-4.701
								c1.471,0.167,2.912,0.572,4.282,1.205c0.662,0.306,1.392,0.036,1.698-0.628c0.295-0.637,0.123-1.516-0.673-1.884
								c-5.244-2.422-12.006-1.918-18.554,1.383c-4.622,2.33-8.772,5.969-12.001,10.522c-3.097,4.367-5.303,9.493-6.378,14.824
								c-1.1,5.454-1.02,11.154,0.237,16.94c1.23,5.658,3.531,11.204,6.84,16.485c3.07,4.899,6.944,9.481,11.516,13.619
								c2.189,1.981,4.549,3.905,6.831,5.766c6.153,5.017,12.516,10.205,16.404,17.172c1.395,2.499,2.412,5.263,3.109,8.448
								c0.418,1.91,0.728,3.884,1.029,5.794c0.212,1.35,0.432,2.746,0.688,4.118c1.352,7.218,3.749,12.076,7.544,15.287
								c1.014,0.858,2.173,1.583,3.445,2.157c0.158,0.071,0.32,0.11,0.479,0.119c0.511,0.028,0.99-0.255,1.221-0.766
								C110.961,383.97,110.783,383.096,109.986,382.737z"/>
						</g>
						<path style="fill:#EA5C5C;" d="M177.102,208.738c-2.082-1.132-4.625-0.983-6.693,0.079c-2.378,0.786-4.809,2.05-5.457,4.613
							c-0.102,0.405-0.149,0.805-0.147,1.199c-0.383,1.434-0.287,2.972,0.481,4.383c1.642,3.017,5.918,4.273,9.124,3.668
							c3.194-0.604,6.083-3.146,6.508-6.472C181.295,213.249,179.723,210.164,177.102,208.738z"/>
						<path style="fill:#EA5C5C;" d="M228.349,189.992c-2.082-1.132-4.625-0.982-6.693,0.079c-2.378,0.786-4.809,2.05-5.457,4.613
							c-0.102,0.405-0.149,0.805-0.147,1.199c-0.382,1.434-0.287,2.972,0.481,4.383c1.642,3.017,5.918,4.273,9.124,3.667
							c3.194-0.604,6.083-3.146,6.508-6.472C232.542,194.503,230.97,191.417,228.349,189.992z"/>
					</g>
				</g>
			</g>
			<g>
				<g>
					<path style="fill:#895046;" d="M317.42,322.722c1.231,0.294,2.336,0.808,3.566,1.102c0.672,0.15,1.319,0.752,1.997,0.789
						c1.457,0.306,2.888,1.065,4.088,1.924c0.025-0.452-0.063-0.91,0.181-1.237c3.528-4.764,7.846-7.581,12.847-10.571
						c-0.339-0.514-0.683-1.031-0.96-1.585c-1.854-3.388-3.263-6.639-5.004-10.021c-0.302-0.697-0.145-1.481-0.56-2.184
						c-0.509-1.048-0.673-2.19-1.183-3.238c-1.101-2.667-1.505-5.636-2.486-8.41c-0.793-2.084-1.246-4.148-1.819-6.107
						c-0.283-1.036,0.356-2.361-0.046-3.289c-0.195-0.577-0.076-0.684-0.17-1.029c-1.531,1.049-2.635,2.576-3.952,3.864
						c-4.68,4.73-9.102,8.908-14.749,12.679c-0.351,0.207-0.376,0.659-0.615,0.873c-2.955,2.218-5.778,4.104-9.155,5.732
						c-0.584,0.308-1.054,0.622-1.406,0.83c-0.697,0.302-1.494,0.372-2.077,0.68c-1.06,0.735-2.209,1.012-3.358,1.289
						c-3.59,1.39-7.292,2.774-10.876,4.051c-1.387,0.491-2.673,1.214-4.054,1.591c-0.386,0.074-0.701,0.313-1.057,0.303
						c-0.104,0.065-0.206,0.131-0.306,0.199c-0.013,0.011-0.027,0.021-0.042,0.029c-4.703,3.263-3.843,10.401-3.843,10.401
						c-0.691,0.54-1.36,1.09-2.009,1.647C285.351,317.209,301.611,318.926,317.42,322.722z"/>
					<path style="fill:#9B5F53;" d="M294.864,221.408c13.962,1.672,27.592,3.212,41.947,1.845
						c15.689-1.584,31.049-4.277,45.118-10.589c35.555-53.465-2.508-112.444-37.145-119.161
						c-39.012-7.565-61.544,2.054-82.462,27.818s-17.071,56.73-11.841,76.829c0.648,2.491,1.469,4.869,2.406,7.127
						c3.202,2.112,6.448,4.029,9.902,5.759C272.939,216.126,283.608,219.997,294.864,221.408z"/>
					<path style="fill:#895046;" d="M336.811,223.253c-14.355,1.367-27.985-0.174-41.947-1.845
						c-11.257-1.41-21.925-5.282-32.073-10.372c-3.455-1.73-6.701-3.647-9.902-5.759c6.084,14.647,17.158,24.147,18.932,25.605
						c5.201-1.835,10.526-2.487,16.137-3.393c8.342-1.243,16.126-0.59,24.194,1.099c3.472,0.757,6.775,2.525,10.329,3.853
						c6.882,2.644,11.682,8.12,15.547,14.113c5.342-0.274,10.483-1.012,15.283-3.809c4.439-2.531,8.755-5.156,12.31-8.529
						c-0.534-1.083-0.841-1.673-0.841-1.673c6.995-6.461,12.66-13.126,17.15-19.879C367.86,218.976,352.5,221.669,336.811,223.253z"
						/>
					<path style="fill:#9B5F53;" d="M373.745,403.445c3.867-0.241,7.463-1.744,11.071-3.473c2.215-1.125,4.003-2.727,6.117-4.085
						c2.472-1.678,3.845-3.983,5.878-5.911c0.947-0.741,2.001-1.364,3.049-1.873c2.102-1.132,4.186-1.924,6.288-3.056
						c1.048-0.509,1.983-1.025,3.037-1.647c0.303-0.177,0.606-0.351,0.909-0.522c0.991-4.942,1.532-10.221,1.64-15.821
						c0.73-38.076-29.145-62.391-29.145-62.391c4.561-24.829-12.878-62.156-16.968-70.45c-3.555,3.373-7.871,5.997-12.31,8.529
						c-4.8,2.797-9.941,3.535-15.283,3.809c-3.865-5.992-8.665-11.469-15.547-14.113c-3.554-1.328-6.857-3.096-10.329-3.853
						c-8.068-1.689-15.852-2.342-24.194-1.099c-5.61,0.906-10.936,1.558-16.137,3.393c0.158,0.13,0.245,0.198,0.245,0.198
						c-21.166,8.338-31.966,24.48-36.394,31.009c-4.428,6.529-19.526,17.938-35.676,27.908c-16.15,9.969-17.898,17.11-19.195,24.275
						c-1.297,7.165,2.755,7.526,2.755,7.526c-0.556,5.084,3.578,4.758,3.578,4.758c3.578,4.758,5.223,1.676,5.223,1.676
						c6.089,6.423,13.637-7.377,16.139-11.763c2.502-4.386,7.622-2.903,7.622-2.903c9.555,3.082,26.284,3.178,34.008,2.534
						c7.174-0.598,23.892-4.728,26.235-5.313c0.004-0.02,0.008-0.039,0.009-0.063c0.045,0.014,0.089,0.022,0.133,0.027
						c0.087-0.022,0.133-0.033,0.133-0.033c-0.021,0.013-0.041,0.026-0.062,0.039c0.356,0.009,0.671-0.229,1.057-0.303
						c1.381-0.378,2.667-1.101,4.054-1.591c3.583-1.277,7.286-2.661,10.876-4.051c1.149-0.277,2.297-0.554,3.358-1.289
						c0.584-0.308,1.381-0.378,2.077-0.68c0.351-0.207,0.822-0.522,1.406-0.83c3.376-1.628,6.199-3.514,9.155-5.732
						c0.238-0.214,0.263-0.666,0.615-0.873c5.647-3.771,10.069-7.948,14.749-12.679c1.317-1.288,2.421-2.814,3.952-3.864
						c0.094,0.345-0.025,0.452,0.17,1.029c0.402,0.929-0.237,2.254,0.046,3.289c0.573,1.958,1.026,4.023,1.819,6.107
						c0.981,2.774,1.385,5.743,2.486,8.41c0.509,1.048,0.673,2.19,1.183,3.238c0.415,0.703,0.259,1.488,0.56,2.184
						c1.741,3.382,3.15,6.633,5.004,10.021c0.277,0.553,0.621,1.071,0.96,1.585c0.03-0.018,0.059-0.036,0.089-0.054
						c1.638-0.93,3.477-1.396,4.901-2.565c-0.107-0.119-0.214-0.238-0.32-0.358c0.107,0.119,0.214,0.238,0.32,0.358
						c-1.424,1.169-3.263,1.635-4.901,2.565c-0.03,0.018-0.059,0.036-0.089,0.054c0.661,1.001,1.301,1.988,1.385,3.191
						c-0.084-1.203-0.724-2.189-1.385-3.191c-5,2.991-9.318,5.807-12.847,10.571c-0.245,0.327-0.156,0.785-0.181,1.237
						c-1.2-0.859-2.631-1.618-4.088-1.924c-0.678-0.037-1.325-0.639-1.997-0.789c-1.231-0.294-2.336-0.808-3.566-1.102
						c-15.809-3.796-32.068-5.512-47.047,0.311c-9.978,8.57-14.945,19.024-16.821,29.137c0.115,0.206,0.229,0.413,0.337,0.619
						c3.791,7.348,7.75,13.685,14.753,18.263c15.959,10.735,34.061,15.467,53.236,13.005c3.885-0.581,7.676-1.506,10.983-3.932
						c1.882-1.257,4.864-1.887,6.234,0.002c2.859,3.67,3.17,8.334,5.898,12.337c2.514,3.765,5.655,6.43,9.498,8.681
						c0.771,0.44,1.553,0.843,2.344,1.213C362.309,403.623,368.151,403.628,373.745,403.445z"/>
					<path style="fill:#895046;" d="M409.185,383.4c-1.054,0.622-1.989,1.138-3.037,1.647c-2.102,1.132-4.186,1.924-6.288,3.056
						c-1.048,0.509-2.102,1.132-3.049,1.873c-2.032,1.929-3.405,4.234-5.878,5.911c-2.115,1.358-3.902,2.96-6.117,4.085
						c-3.608,1.729-7.204,3.232-11.071,3.473c-5.594,0.182-11.436,0.178-16.911-1.089c-0.791-0.37-1.573-0.773-2.344-1.213
						c-3.844-2.251-6.984-4.916-9.498-8.681c-2.727-4.003-3.039-8.667-5.898-12.337c-1.37-1.888-4.351-1.258-6.234-0.002
						c-3.306,2.426-7.097,3.351-10.983,3.932c-19.176,2.463-37.277-2.27-53.236-13.005c-7.003-4.577-10.962-10.915-14.753-18.263
						c-0.109-0.206-0.222-0.412-0.337-0.619c-2.973,16.023,1.813,31.191,6.721,36.653c8.206,9.134,16.444,12.517,16.444,12.517
						c-4.073,1.081-14.424,2.201-20.607,9.325c-6.183,7.124,0.697,10.44,6.177,11.674c5.48,1.233,34.51,11.813,81.251,8.947
						c33.21-2.036,53.286-14.382,62.388-35.016c1.825-4.136,3.207-8.606,4.168-13.392
						C409.791,383.049,409.488,383.223,409.185,383.4z"/>
					<path style="fill:#9B5F53;" d="M400.802,373.97c0,0,21.653-9.969,26.327-34.739c4.674-24.77-0.694-42.349-4.79-55.64
						c-4.096-13.291-7.188-39.391,7.064-51.877c14.253-12.486,18.751-6.842,18.979-3.956c0.228,2.886-1.181,9.303-7.782,14.218
						c-6.601,4.915-11.043,17.184-8.936,31.019c2.106,13.834,10.777,32.435,10.83,45.307c0.053,12.873-1.577,28.194-6.418,36.474
						c-4.841,8.28-19.143,27.465-38.185,33.809L400.802,373.97z"/>
				</g>
				<g>
					<path style="fill:#E2AB86;" d="M401.827,159.948c-16.338-7.227-26.229,1.729-26.229,1.729l-1.207,8.557l-3.571,25.315
						l-0.94,6.665c4.923,4.939,25.974,8.966,37.706-2.747C419.316,187.755,418.165,167.176,401.827,159.948z"/>
					<path style="fill:#E2AB86;" d="M352.803,145.506c-13.475-11.137-36.811-3.83-43.262-2.722
						c-6.451,1.108-12.491-13.793-34.832-5.864c-22.699,8.056-15.808,46.855-15.808,46.855c-5.113,9.58-2.834,18.68,1.702,26.126
						c0.721,0.387,1.45,0.765,2.189,1.135c10.148,5.09,20.817,8.961,32.073,10.372c13.962,1.672,27.592,3.212,41.947,1.845
						c2.799-0.283,5.588-0.601,8.36-0.968c4.132-3.526,8.466-7.849,12.369-12.988C370.244,192.57,366.278,156.643,352.803,145.506z
						 M314.155,204.444c-0.709,0.528-1.525,0.936-2.34,1.345c-7.977,2.85-16.253-1.231-20.508-8.378
						c-3.847-6.331-5.893-14.49-1.246-20.696c1.223-1.633,3.313-2.539,5.277-3.224c0.81-0.296,1.833-0.353,2.642-0.649
						c0.312-0.11,0.627-0.184,0.946-0.231c1.409-0.425,2.889-0.589,4.415-0.382c0,0-0.012,0.226-0.019,0.339
						c4.187,0.116,8.493,0.125,12.325,2.602c2.192,1.367,3.317,3.582,4.217,5.785C323.164,188.957,321.37,198.946,314.155,204.444z"
						/>
					<path style="fill:#EFBF9E;" d="M315.645,175.171c-3.831-2.477-8.137-2.486-12.325-2.602c0.006-0.113,0.019-0.339,0.019-0.339
						c-1.526-0.207-3.006-0.043-4.415,0.382c1.098-0.16,2.23,0.028,3.355,0.353c-1.125-0.325-2.256-0.513-3.355-0.353
						c-1.188,0.359-2.326,0.903-3.399,1.57c1.073-0.667,2.211-1.211,3.399-1.57c-0.318,0.046-0.634,0.12-0.946,0.231
						c-0.81,0.296-1.833,0.353-2.642,0.649c-1.964,0.686-4.054,1.591-5.277,3.224c-4.647,6.206-2.601,14.365,1.246,20.696
						c4.255,7.147,12.532,11.227,20.508,8.378c0.816-0.409,1.632-0.817,2.34-1.345c7.215-5.498,9.009-15.487,5.707-23.488
						C318.963,178.753,317.837,176.538,315.645,175.171z"/>
					<path style="fill:#BF8862;" d="M336.811,223.253c-14.355,1.367-27.985-0.174-41.947-1.845
						c-11.257-1.41-21.925-5.282-32.073-10.372c-0.739-0.37-1.468-0.748-2.189-1.135c6.699,10.998,18.321,18.39,18.321,18.39
						c29.792-4.699,48.643,5.832,48.643,5.832s8.289-3.888,17.605-11.838C342.399,222.652,339.611,222.971,336.811,223.253z"/>
					<path style="fill:#EA5C5C;" d="M278.443,192.663c-1.467-1.861-3.863-2.726-6.182-2.565c-2.495-0.215-5.228-0.011-6.833,2.088
						c-0.254,0.332-0.454,0.682-0.608,1.044c-0.917,1.167-1.435,2.618-1.285,4.218c0.32,3.42,3.755,6.26,6.94,6.967
						c3.173,0.704,6.831-0.494,8.532-3.383C280.519,198.462,280.29,195.006,278.443,192.663z"/>
					<path style="fill:#EA5C5C;" d="M342.261,198.175c-1.467-1.861-3.863-2.726-6.182-2.565c-2.495-0.215-5.228-0.011-6.833,2.088
						c-0.254,0.332-0.454,0.682-0.608,1.044c-0.917,1.167-1.435,2.618-1.285,4.218c0.32,3.42,3.755,6.26,6.94,6.967
						c3.173,0.704,6.831-0.494,8.532-3.383C344.337,203.973,344.108,200.518,342.261,198.175z"/>
				</g>
				<g>
					<path style="fill:#CE9972;" d="M356.062,275.427c-0.187-0.307-0.498-0.479-0.85-0.47c-0.363,0.008-0.705,0.208-0.87,0.51
						c-0.152,0.277-0.138,0.6,0.036,0.888c0.731,1.203,1.229,2.51,1.481,3.885c0.062,0.336,0.273,0.592,0.579,0.702
						c0.087,0.031,0.178,0.049,0.27,0.054c0.258,0.014,0.523-0.071,0.725-0.243c0.261-0.222,0.374-0.549,0.311-0.896
						C357.456,278.279,356.89,276.789,356.062,275.427z"/>
					<path style="fill:#CE9972;" d="M359.485,272.427c-0.158-0.307-0.438-0.494-0.77-0.512c-0.002,0-0.004,0-0.005,0
						c-0.355-0.017-0.709,0.164-0.902,0.463c-0.181,0.281-0.193,0.619-0.034,0.928l2.688,5.234c0.158,0.308,0.438,0.494,0.77,0.512
						c0.002,0,0.004,0,0.005,0c0.355,0.018,0.709-0.164,0.902-0.463c0.181-0.28,0.193-0.619,0.034-0.928L359.485,272.427z"/>
					<path style="fill:#CE9972;" d="M363.19,261.327c-0.322-0.526-0.953-0.572-1.378-0.313c-0.449,0.275-0.578,0.798-0.305,1.243
						l2.878,4.701c0.187,0.305,0.478,0.449,0.772,0.465c0.213,0.012,0.428-0.043,0.606-0.152c0.449-0.275,0.577-0.798,0.305-1.243
						L363.19,261.327z"/>
					<path style="fill:#CE9972;" d="M367.74,262.936l-2.873-6.458c-0.215-0.483-0.726-0.675-1.215-0.457
						c-0.442,0.197-0.773,0.718-0.516,1.296l2.873,6.458c0.148,0.332,0.436,0.527,0.762,0.545c0.147,0.008,0.301-0.02,0.453-0.088
						C367.667,264.036,367.997,263.515,367.74,262.936z"/>
					<path style="fill:#CE9972;" d="M366.99,307.756c-0.111-0.308-0.345-0.515-0.642-0.569c-0.33-0.059-0.694,0.083-0.931,0.363
						c-0.236,0.279-0.303,0.649-0.18,0.991l2.53,7.029c0.126,0.351,0.415,0.563,0.749,0.581c0.119,0.007,0.243-0.011,0.367-0.056
						c0.482-0.173,0.852-0.711,0.636-1.31L366.99,307.756z"/>
					<path style="fill:#CE9972;" d="M373.006,307.789c-0.082-0.341-0.316-0.592-0.643-0.688c-0.344-0.102-0.731-0.01-0.986,0.232
						c-0.238,0.226-0.328,0.547-0.247,0.882l1.439,5.971c0.082,0.341,0.316,0.592,0.643,0.688c0.075,0.022,0.152,0.035,0.229,0.039
						c0.277,0.015,0.557-0.082,0.757-0.272c0.238-0.226,0.328-0.547,0.247-0.882L373.006,307.789z"/>
					<path style="fill:#CE9972;" d="M287.426,325.48c0.309-0.168,0.49-0.461,0.499-0.801c0.009-0.359-0.18-0.709-0.48-0.892
						c-0.279-0.17-0.612-0.174-0.914-0.009c-2.282,1.246-4.313,2.899-6.035,4.914c-0.213,0.25-0.278,0.557-0.177,0.842
						c0.112,0.316,0.417,0.563,0.776,0.63c0.045,0.008,0.089,0.014,0.133,0.016c0.311,0.017,0.608-0.109,0.814-0.35
						C283.542,328.075,285.353,326.611,287.426,325.48z"/>
					<path style="fill:#CE9972;" d="M289.565,327.218c-2.211,1.284-4.24,2.834-6.031,4.607c-0.448,0.444-0.33,1.048,0.01,1.39
						c0.179,0.181,0.396,0.278,0.615,0.29c0.244,0.013,0.489-0.078,0.688-0.274c1.701-1.684,3.596-3.137,5.633-4.32
						c0.546-0.317,0.583-0.933,0.34-1.351C290.551,327.095,290.024,326.952,289.565,327.218z"/>
					<path style="fill:#CE9972;" d="M270.412,343.609c-0.463-0.274-0.995-0.142-1.265,0.315l-3.91,6.607
						c-0.181,0.306-0.187,0.655-0.017,0.958c0.17,0.303,0.491,0.504,0.825,0.523c0.013,0.001,0.027,0.001,0.04,0.001
						c0.321,0.003,0.605-0.162,0.778-0.455l3.91-6.606C271.094,344.409,270.827,343.855,270.412,343.609z"/>
					<path style="fill:#CE9972;" d="M274.163,345.175c-0.339-0.028-0.645,0.125-0.843,0.414c-1.335,1.948-2.576,3.993-3.688,6.078
						c-0.171,0.32-0.159,0.679,0.031,0.985c0.178,0.286,0.487,0.472,0.801,0.489c0.026,0.001,0.051,0.002,0.077,0.001
						c0.31-0.01,0.577-0.185,0.734-0.479c1.098-2.06,2.323-4.079,3.642-6.003c0.195-0.285,0.225-0.618,0.083-0.915
						C274.849,345.426,274.52,345.203,274.163,345.175z"/>
					<path style="fill:#CE9972;" d="M286.205,362.826c0.126-0.314,0.086-0.638-0.111-0.889c-0.214-0.273-0.584-0.417-0.943-0.365
						c-0.347,0.049-0.622,0.267-0.755,0.599c-0.862,2.144-0.834,4.524,0.077,6.702c0.129,0.309,0.382,0.509,0.694,0.549
						c0.021,0.003,0.043,0.005,0.064,0.006c0.322,0.018,0.654-0.139,0.86-0.41c0.215-0.283,0.259-0.636,0.12-0.968
						C285.518,366.394,285.516,364.538,286.205,362.826z"/>
					<path style="fill:#CE9972;" d="M292.816,360.893c-0.046-0.504-0.446-0.838-0.951-0.791c-0.509,0.046-1.001,0.471-0.944,1.103
						l0.374,4.135c0.029,0.327,0.204,0.587,0.479,0.714c0.102,0.047,0.213,0.073,0.327,0.08c0.228,0.013,0.467-0.054,0.666-0.195
						c0.297-0.209,0.455-0.55,0.423-0.911L292.816,360.893z"/>
					<path style="fill:#CE9972;" d="M240.458,268.599c-0.322-0.117-0.662-0.055-0.933,0.172l-6.123,5.132
						c-0.411,0.344-0.455,0.897-0.105,1.314c0.173,0.206,0.433,0.35,0.713,0.365c0.217,0.012,0.447-0.054,0.656-0.229l6.123-5.132
						c0.262-0.22,0.381-0.53,0.325-0.85C241.053,269.025,240.796,268.722,240.458,268.599z"/>
					<path style="fill:#CE9972;" d="M241.919,259.477l-5.207,4.238c-0.264,0.215-0.386,0.52-0.335,0.838
						c0.055,0.344,0.309,0.65,0.646,0.778c0.096,0.036,0.193,0.057,0.289,0.062c0.232,0.013,0.46-0.063,0.654-0.221l5.207-4.238
						c0.412-0.335,0.464-0.882,0.124-1.299C242.995,259.261,242.408,259.079,241.919,259.477z"/>
					<path style="fill:#CE9972;" d="M263.892,238.69c-2.509-0.734-5.172-0.814-7.7-0.231c-0.528,0.122-0.832,0.62-0.708,1.16
						c0.1,0.434,0.444,0.72,0.852,0.743c0.089,0.005,0.181-0.003,0.274-0.024c2.218-0.511,4.534-0.446,6.699,0.187
						c0.602,0.176,1.069-0.218,1.204-0.677C264.666,239.326,264.404,238.84,263.892,238.69z"/>
					<path style="fill:#CE9972;" d="M269.153,236.076c-1.912-1.039-3.974-1.716-6.128-2.012c-0.513-0.07-0.94,0.255-1.012,0.775
						c-0.068,0.494,0.229,1.055,0.842,1.14c1.863,0.256,3.645,0.84,5.296,1.737c0.136,0.074,0.279,0.115,0.422,0.122
						c0.191,0.01,0.383-0.038,0.558-0.145c0.31-0.19,0.505-0.534,0.496-0.876C269.62,236.505,269.447,236.235,269.153,236.076z"/>
					<path style="fill:#CE9972;" d="M276.933,235.538l-3.881-2.559c-0.449-0.296-1.015-0.174-1.317,0.284
						c-0.302,0.458-0.191,1.026,0.258,1.322l3.881,2.559c0.15,0.099,0.312,0.151,0.474,0.16c0.323,0.018,0.642-0.138,0.843-0.444
						C277.492,236.402,277.381,235.834,276.933,235.538z"/>
					<path style="fill:#CE9972;" d="M275.845,247.699l-4.15,1.6c-0.478,0.184-0.69,0.667-0.505,1.147
						c0.137,0.357,0.478,0.645,0.89,0.668c0.133,0.007,0.274-0.013,0.417-0.069l4.15-1.6c0.478-0.184,0.69-0.666,0.505-1.147
						C276.97,247.826,276.431,247.473,275.845,247.699z"/>
					<path style="fill:#CE9972;" d="M278.244,253.24l-6.948,2.758c-0.479,0.19-0.688,0.678-0.496,1.16
						c0.139,0.35,0.477,0.633,0.882,0.655c0.135,0.007,0.278-0.014,0.424-0.072l6.948-2.758c0.479-0.19,0.687-0.678,0.496-1.16
						C279.363,253.355,278.824,253.009,278.244,253.24z"/>
					<path style="fill:#CE9972;" d="M305.686,284.306l-4.331,4.737c-0.422,0.462-0.29,1.09,0.083,1.43
						c0.168,0.154,0.365,0.235,0.562,0.246c0.25,0.014,0.501-0.087,0.696-0.299l4.33-4.737c0.245-0.269,0.324-0.62,0.214-0.966
						c-0.11-0.348-0.396-0.62-0.727-0.693C306.212,283.959,305.91,284.061,305.686,284.306z"/>
					<path style="fill:#CE9972;" d="M301.627,283.562c-0.391-0.315-1.031-0.351-1.422,0.135l0,0l-5.101,6.339
						c-0.323,0.402-0.265,0.93,0.14,1.256c0.169,0.136,0.385,0.22,0.607,0.232c0.291,0.016,0.593-0.092,0.815-0.368l5.101-6.339
						C302.091,284.416,302.032,283.888,301.627,283.562z"/>
					<path style="fill:#CE9972;" d="M280.026,120.483c0.088,0.349,0.362,0.637,0.698,0.733c0.065,0.019,0.13,0.03,0.195,0.033
						c0.246,0.013,0.487-0.079,0.681-0.267l4.365-4.225c0.45-0.436,0.339-1.037,0.006-1.381c-0.377-0.39-0.929-0.403-1.313-0.031
						l-4.365,4.226C280.04,119.816,279.942,120.149,280.026,120.483z"/>
					<path style="fill:#CE9972;" d="M273.502,122.526c0.235,0.013,0.474-0.065,0.672-0.237l5.787-5.023
						c0.402-0.349,0.437-0.921,0.082-1.331c-0.363-0.419-0.947-0.466-1.357-0.11l-5.787,5.024c-0.402,0.349-0.437,0.921-0.082,1.331
						C273.005,122.395,273.251,122.512,273.502,122.526z"/>
					<path style="fill:#CE9972;" d="M308.262,121.583c0.41-0.347,0.452-0.901,0.099-1.318c-0.307-0.363-0.89-0.532-1.366-0.13
						c-2.128,1.799-3.959,3.909-5.442,6.27c-0.187,0.298-0.203,0.641-0.044,0.941c0.165,0.312,0.493,0.523,0.839,0.542
						c0.006,0,0.011,0.001,0.016,0.001c0.328,0.012,0.621-0.148,0.804-0.439C304.555,125.241,306.269,123.267,308.262,121.583z"/>
					<path style="fill:#CE9972;" d="M316.219,129.065c0.545,0.026,0.976-0.357,1.002-0.892c0.092-1.892,0.501-3.75,1.215-5.523
						c0.127-0.314,0.087-0.638-0.11-0.888c-0.214-0.273-0.583-0.417-0.942-0.366c-0.347,0.049-0.622,0.267-0.756,0.598v0
						c-0.78,1.934-1.227,3.979-1.329,6.079c-0.026,0.536,0.366,0.962,0.912,0.992C316.214,129.064,316.216,129.064,316.219,129.065z
						"/>
					<path style="fill:#CE9972;" d="M340.886,121.524c-0.038-0.33-0.223-0.589-0.507-0.712c-0.312-0.135-0.703-0.081-0.996,0.136
						c-0.29,0.216-0.432,0.546-0.39,0.908l0.908,7.82c0.038,0.33,0.223,0.589,0.507,0.712c0.098,0.042,0.204,0.066,0.313,0.072
						c0.236,0.013,0.483-0.059,0.684-0.208c0.29-0.215,0.432-0.546,0.39-0.908L340.886,121.524z"/>
					<path style="fill:#CE9972;" d="M344.679,122.678c-0.035-0.328-0.215-0.588-0.495-0.713c-0.309-0.138-0.699-0.088-0.995,0.127
						c-0.295,0.214-0.442,0.546-0.404,0.909l0.859,8.196c0.034,0.328,0.215,0.588,0.495,0.713c0.1,0.044,0.208,0.069,0.319,0.075
						c0.232,0.013,0.476-0.057,0.676-0.202c0.295-0.214,0.442-0.546,0.404-0.909L344.679,122.678z"/>
					<path style="fill:#CE9972;" d="M372.962,149.363c0.133,0.345,0.422,0.552,0.753,0.57c0.127,0.007,0.261-0.014,0.394-0.065
						c0.472-0.182,0.824-0.721,0.598-1.307l-1.818-4.706c-0.119-0.309-0.362-0.513-0.665-0.56c-0.336-0.052-0.699,0.098-0.928,0.382
						c-0.228,0.283-0.284,0.641-0.152,0.981L372.962,149.363z"/>
					<path style="fill:#CE9972;" d="M376.773,146.149c0.074,0.445,0.41,0.74,0.836,0.763c0.074,0.004,0.152,0,0.231-0.013
						c0.475-0.079,0.924-0.499,0.821-1.121l0,0c-0.398-2.39-1.063-4.778-1.976-7.097c-0.122-0.309-0.367-0.512-0.672-0.558
						c-0.336-0.05-0.7,0.102-0.927,0.387c-0.225,0.283-0.278,0.639-0.144,0.978C375.772,141.6,376.389,143.842,376.773,146.149z"/>
					<path style="fill:#CE9972;" d="M310.401,103.18c0.119,0.055,0.245,0.086,0.37,0.093c0.219,0.012,0.438-0.049,0.627-0.182
						l8.136-5.716c0.416-0.292,0.505-0.807,0.212-1.224c-0.293-0.417-0.905-0.631-1.423-0.267l-8.136,5.716
						c-0.269,0.189-0.408,0.472-0.381,0.775C309.836,102.711,310.07,103.026,310.401,103.18z"/>
					<path style="fill:#CE9972;" d="M321.672,99.108l-6.1,4.201c-0.27,0.186-0.411,0.465-0.387,0.766
						c0.027,0.333,0.257,0.65,0.588,0.807c0.123,0.059,0.253,0.091,0.382,0.098c0.217,0.012,0.434-0.048,0.621-0.177l6.1-4.201
						c0.416-0.287,0.51-0.797,0.224-1.213C322.81,98.968,322.196,98.747,321.672,99.108z"/>
					<path style="fill:#CE9972;" d="M349.19,103.663c-0.259-0.479-0.825-0.64-1.314-0.375c-0.475,0.257-0.642,0.802-0.389,1.269
						c1.271,2.349,2.395,4.807,3.34,7.305c0.131,0.347,0.42,0.555,0.752,0.573c0.125,0.007,0.256-0.013,0.387-0.063
						c0.475-0.18,0.832-0.718,0.609-1.308C351.616,108.533,350.478,106.043,349.19,103.663z"/>
					<path style="fill:#CE9972;" d="M356.396,103.632c-0.16-0.309-0.447-0.498-0.78-0.51c-0.356-0.016-0.709,0.167-0.9,0.466
						c-0.179,0.28-0.19,0.618-0.03,0.926c1.24,2.388,1.872,5.063,1.828,7.736c-0.01,0.609,0.466,0.954,0.932,0.979
						c0.013,0.001,0.026,0.001,0.039,0.001c0.542,0.009,0.941-0.372,0.95-0.906C358.485,109.304,357.78,106.299,356.396,103.632
						L356.396,103.632z"/>
					<path style="fill:#CE9972;" d="M395.652,346.776c-0.159-0.305-0.44-0.49-0.77-0.508c-0.004,0-0.008,0-0.012-0.001
						c-0.356-0.015-0.709,0.168-0.9,0.467c-0.178,0.28-0.188,0.617-0.028,0.925c1.122,2.15,1.985,4.426,2.566,6.764
						c0.085,0.342,0.322,0.592,0.651,0.686c0.073,0.021,0.148,0.034,0.224,0.038c0.28,0.015,0.562-0.083,0.761-0.276
						c0.235-0.226,0.322-0.547,0.239-0.88C397.761,351.483,396.841,349.055,395.652,346.776z"/>
					<path style="fill:#CE9972;" d="M402.696,352.82c-0.62-2.551-1.86-4.942-3.584-6.915c-0.228-0.26-0.544-0.373-0.869-0.309
						c-0.347,0.068-0.646,0.331-0.761,0.669c-0.109,0.319-0.039,0.653,0.191,0.917c1.516,1.734,2.604,3.832,3.148,6.066
						c0.104,0.427,0.453,0.705,0.868,0.728c0.1,0.006,0.204-0.004,0.309-0.029C402.53,353.817,402.823,353.343,402.696,352.82z"/>
					<path style="fill:#CE9972;" d="M382.185,403.397c0.525-0.356,0.542-1.006,0.255-1.429c-0.285-0.42-0.797-0.519-1.216-0.234
						c-2.38,1.613-4.389,3.615-5.972,5.948c-0.194,0.286-0.223,0.621-0.079,0.919c0.154,0.318,0.484,0.541,0.84,0.567
						c0.006,0,0.012,0.001,0.018,0.001c0.33,0.018,0.628-0.134,0.821-0.418C378.3,406.616,380.094,404.814,382.185,403.397z"/>
					<path style="fill:#CE9972;" d="M384.93,404.282l-5.139,4.788c-0.257,0.239-0.36,0.566-0.284,0.897
						c0.08,0.349,0.35,0.641,0.688,0.744c0.072,0.022,0.144,0.035,0.215,0.039c0.243,0.013,0.481-0.075,0.676-0.257l5.139-4.788
						c0.398-0.371,0.412-0.957,0.034-1.364C385.889,403.945,385.318,403.92,384.93,404.282z"/>
					<path style="fill:#CE9972;" d="M299.018,402.682l-5.182-3.535c-0.44-0.3-1.003-0.189-1.308,0.259
						c-0.312,0.458-0.21,1.034,0.238,1.339l5.182,3.535c0.152,0.103,0.317,0.16,0.483,0.169c0.147,0.008,0.294-0.021,0.434-0.088
						c0.318-0.153,0.542-0.483,0.568-0.839C299.458,403.185,299.307,402.879,299.018,402.682z"/>
					<path style="fill:#CE9972;" d="M303.349,399.526c-1.48-1.444-3.113-2.698-4.853-3.726c-0.544-0.321-1.097-0.053-1.343,0.363
						c-0.273,0.463-0.14,0.995,0.316,1.264c1.643,0.97,3.152,2.122,4.484,3.422c0.176,0.172,0.392,0.267,0.62,0.28
						c0.104,0.006,0.211-0.006,0.318-0.036c0.349-0.098,0.63-0.378,0.715-0.712C303.684,400.073,303.59,399.762,303.349,399.526z"/>
					<path style="fill:#CE9972;" d="M341.295,382.909c-0.183-0.593-0.787-0.795-1.265-0.647c-0.5,0.154-0.751,0.626-0.598,1.121
						l1.558,5.051c0.106,0.345,0.368,0.589,0.716,0.668c0.058,0.013,0.117,0.021,0.177,0.025c0.3,0.016,0.597-0.095,0.791-0.304
						c0.212-0.229,0.277-0.543,0.179-0.863L341.295,382.909z"/>
					<path style="fill:#CE9972;" d="M345.891,378.504c-0.204-0.481-0.704-0.681-1.191-0.475c-0.457,0.194-0.785,0.733-0.545,1.301
						l2.364,5.578c0.131,0.309,0.386,0.509,0.699,0.547c0.02,0.003,0.04,0.004,0.06,0.005c0.324,0.018,0.657-0.14,0.863-0.413
						c0.213-0.283,0.255-0.635,0.115-0.966L345.891,378.504z"/>
				</g>
				<path style="fill:#BC7468;" d="M319.079,291.656c-0.697-0.586-1.732-1.314-3.046-2.159c-0.196,0.267-0.389,0.538-0.578,0.816
					c-0.495,0.766-1.11,1.639-2.252,1.803c-0.006,0.113-0.019,0.339-0.025,0.452c-0.245,0.327-0.483,0.54-0.929,0.402
					c-0.006,0.113-0.019,0.339-0.025,0.452c-0.113-0.006-0.339-0.018-0.452-0.025c-0.351,0.207-0.59,0.421-0.502,0.879
					c-0.113-0.006-0.339-0.019-0.452-0.025c-0.006,0.113-0.019,0.339-0.025,0.452c-0.553-0.257-0.828,0.635-1.381,0.378
					c-0.006,0.113-0.019,0.339-0.025,0.452c-0.553-0.257-0.828,0.635-1.381,0.378c-0.006,0.113-0.019,0.339-0.025,0.452
					c-1.124-0.175-1.211,1.407-2.334,1.232c-0.006,0.113-0.019,0.339-0.025,0.452c-0.113-0.006-0.339-0.019-0.452-0.025
					c-0.006,0.113-0.019,0.339-0.025,0.452c-0.113-0.006-0.339-0.018-0.452-0.025c-0.596,0.534-0.721,0.754-1.305,1.062
					c-0.929,0.402-1.876,1.144-2.912,1.427c-0.006,0.113-0.019,0.339-0.025,0.452c-0.232,0.101-0.672-0.15-0.904-0.049
					c-0.351,0.207-0.602,0.647-0.954,0.854c-0.232,0.101-0.672-0.15-0.904-0.049c-2.341,1.345-4.794,2.684-7.436,3.333
					c-0.339-0.019-0.596,0.534-0.947,0.742c-0.232,0.101-0.672-0.15-0.904-0.05c-0.351,0.207-0.602,0.647-0.954,0.855
					c-2.316,0.893-4.305,2.031-6.52,3.156c-0.351,0.207-0.904-0.05-1.362,0.039c-0.232,0.101-0.245,0.327-0.477,0.427
					c-0.458,0.088-1.023,0.057-1.488,0.258c-0.81,0.296-1.921-0.105-2.944-0.048c-0.119,0.107-0.245,0.327-0.477,0.427
					c-0.345,0.094-0.559-0.144-0.904-0.05c-0.232,0.101-0.471,0.314-0.477,0.427c-0.006,0.113,0.433,0.364,0.427,0.477
					c-0.237,2.254-2.813,2.928-3.276,5.169c-0.334,1.377,0.418,5.724,2.127,5.695l0.006-0.006l32.434,1.718
					c0,0,9.88,2.759,18.033,5.018c8.153,2.259,9.797-4.628,13.74-11.232S328.159,299.283,319.079,291.656z"/>
				<g>
					<g>
						<path style="fill:#5B281B;" d="M267.868,185.879c0.775,0.719,1.772,1.221,2.815,1.42c0.619,0.217,1.246,0.344,1.869,0.378
							c0.081,0.004,0.161,0.007,0.242,0.008c2.249,0.036,4.447-1.189,5.736-3.197c1.194-1.861,1.527-4.254,0.89-6.401
							c-0.592-1.997-1.924-3.55-3.749-4.373l0,0c-1.84-0.829-4.054-0.857-5.925-0.074c-2.01,0.842-3.493,2.731-3.967,5.056
							C265.232,181.375,266.052,184.194,267.868,185.879z"/>
						<path style="fill:#5B281B;" d="M339.488,179.226L339.488,179.226c-1.839-0.829-4.054-0.857-5.925-0.074
							c-2.01,0.841-3.493,2.731-3.967,5.056c-0.546,2.679,0.274,5.498,2.09,7.184c0.774,0.719,1.772,1.221,2.814,1.419
							c0.619,0.217,1.246,0.344,1.869,0.378c0.081,0.004,0.161,0.007,0.242,0.008c2.249,0.036,4.447-1.189,5.736-3.197
							c1.194-1.861,1.527-4.254,0.89-6.401C342.645,181.602,341.313,180.049,339.488,179.226z"/>
						<path style="fill:#5B281B;" d="M303.489,199.374c2.893,0.158,5.838-0.502,8.447-2.039c1.636-0.964,3.072-2.216,4.268-3.722
							c0.294-0.37,0.371-0.841,0.205-1.26c-0.177-0.447-0.612-0.784-1.11-0.858c-0.491-0.073-0.97,0.117-1.28,0.508
							c-2.172,2.734-5.503,4.484-8.937,4.7c-0.607-2.701-1.016-5.422-1.219-8.106c1.812-1.643,3.546-3.39,5.159-5.197
							c0.335-0.376,0.441-0.886,0.284-1.364c-0.158-0.479-0.561-0.851-1.028-0.948c-0.441-0.092-0.877,0.059-1.193,0.414
							c-1.43,1.603-2.959,3.158-4.552,4.631c-1.466-1.921-2.788-3.959-3.938-6.07c-0.234-0.43-0.662-0.693-1.138-0.706
							c-0.497-0.012-0.984,0.25-1.24,0.669c-0.243,0.397-0.25,0.887-0.019,1.311c1.424,2.616,3.096,5.124,4.97,7.457
							c0.203,2.622,0.574,5.224,1.106,7.755c-2.734-0.469-5.307-1.854-7.184-3.895c-0.52-0.565-1.344-0.593-1.918-0.066
							c-0.566,0.521-0.605,1.335-0.091,1.893C295.84,197.484,299.618,199.162,303.489,199.374z"/>
						<path style="fill:#5B281B;" d="M195.082,319.582c-0.495-0.085-0.984,0.094-1.307,0.481c-1.906,2.288-2.708,5.315-2.201,8.302
							c0.08,0.471,0.386,0.849,0.817,1.009c0.126,0.047,0.258,0.073,0.393,0.081c0.353,0.019,0.715-0.095,0.994-0.326
							c0.373-0.309,0.546-0.784,0.464-1.27c-0.37-2.177,0.248-4.421,1.695-6.158c0.304-0.366,0.39-0.818,0.234-1.242
							C196.007,320.012,195.579,319.668,195.082,319.582z"/>
						<path style="fill:#5B281B;" d="M190.149,316.089c-0.486-0.055-0.949,0.148-1.243,0.546c-2.129,2.872-3.037,6.433-2.559,10.027
							c0.063,0.469,0.349,0.851,0.767,1.023c0.136,0.056,0.281,0.088,0.429,0.096c0.336,0.018,0.684-0.085,0.961-0.298
							c0.392-0.302,0.586-0.777,0.52-1.271c-0.371-2.789,0.394-5.709,2.099-8.01c0.284-0.384,0.345-0.864,0.163-1.284
							C191.093,316.471,190.646,316.146,190.149,316.089z"/>
						<path style="fill:#5B281B;" d="M188.002,312.198c-0.544-0.487-1.321-0.445-1.807,0.098v0
							c-2.304,2.575-3.857,5.685-4.492,8.994c-0.165,0.859,0.468,1.531,1.149,1.662c0.063,0.012,0.125,0.02,0.186,0.023
							c0.631,0.034,1.17-0.381,1.294-1.027c0.56-2.92,1.874-5.602,3.799-7.753C188.592,313.681,188.669,312.794,188.002,312.198z"/>
						<path style="fill:#5B281B;" d="M322.621,281.605c-0.628-0.465-1.478-0.345-1.935,0.272
							c-5.012,6.774-11.692,12.67-19.856,17.527c-7.601,4.522-16.369,8.079-26.806,10.876c-4.953,1.327-10.437,2.524-16.763,3.659
							c-0.74,0.133-1.196,0.797-1.062,1.546c0.117,0.652,0.642,1.106,1.261,1.14c0.105,0.006,0.213,0,0.322-0.02
							c12.052-2.163,21.578-4.676,29.979-7.91c9.442-3.635,17.68-8.352,24.485-14.022c4.065-3.386,7.651-7.164,10.659-11.229
							C323.348,282.843,323.226,282.053,322.621,281.605z"/>
						<path style="fill:#5B281B;" d="M258.921,335.038c0.264,0.014,0.538-0.057,0.785-0.22c4.453-2.946,8.767-6.15,12.824-9.523
							c0.369-0.307,0.543-0.763,0.464-1.219c-0.083-0.482-0.439-0.905-0.907-1.078c-0.452-0.167-0.948-0.079-1.326,0.236
							c-3.987,3.316-8.175,6.43-12.446,9.256c-0.732,0.484-0.769,1.38-0.381,1.965C258.173,334.815,258.538,335.017,258.921,335.038
							z"/>
						<path style="fill:#5B281B;" d="M255.069,345.452c0.07,0.004,0.141,0.003,0.212-0.004c0.5-0.046,0.924-0.347,1.134-0.803
							c0.774-1.683,2.093-3.13,3.713-4.077c0.427-0.249,0.68-0.689,0.678-1.176c-0.003-0.501-0.277-0.98-0.699-1.221
							c-0.398-0.227-0.882-0.219-1.294,0.022c-2.158,1.26-3.855,3.137-4.91,5.429c-0.199,0.432-0.163,0.892,0.098,1.261
							C254.238,345.218,254.642,345.428,255.069,345.452z"/>
						<path style="fill:#5B281B;" d="M285.205,403.708c-7.711-2.024-14.677-6.198-20.144-12.07c-2.818-3.026-5.163-6.478-6.97-10.26
							c-1.791-3.749-3.017-7.742-3.643-11.869c-0.73-4.815-0.63-9.632,0.298-14.319c0.098-0.496-0.071-0.993-0.454-1.328
							c-0.386-0.338-0.908-0.451-1.363-0.297c-0.423,0.144-0.719,0.493-0.81,0.956c-0.875,4.417-1.073,8.95-0.591,13.473
							c0.481,4.515,1.629,8.905,3.412,13.049c1.693,3.936,3.986,7.619,6.816,10.949c2.796,3.291,6.051,6.159,9.673,8.526
							c4.036,2.637,8.415,4.587,13.014,5.794c0.094,0.025,0.189,0.039,0.283,0.045c0.385,0.021,0.758-0.12,1.035-0.4
							c0.353-0.357,0.498-0.889,0.371-1.356C286.011,404.163,285.664,403.829,285.205,403.708z"/>
						<path style="fill:#5B281B;" d="M265.529,413.495c-0.496-0.085-0.984,0.095-1.305,0.482l0,0
							c-1.935,2.329-2.929,5.396-2.727,8.415c0.034,0.504,0.325,0.938,0.78,1.161c0.18,0.088,0.374,0.137,0.568,0.148
							c0.295,0.016,0.589-0.057,0.827-0.216c0.373-0.25,0.568-0.664,0.536-1.137c-0.165-2.454,0.609-4.845,2.179-6.734
							c0.304-0.366,0.389-0.819,0.233-1.242C266.454,413.924,266.026,413.58,265.529,413.495z"/>
						<path style="fill:#5B281B;" d="M266.007,408.979c-0.335-0.694-1.132-0.979-1.816-0.65c-4.037,1.948-7.384,5.007-9.681,8.848
							c-0.393,0.657-0.177,1.484,0.491,1.883c0.204,0.122,0.42,0.187,0.633,0.198c0.466,0.026,0.917-0.203,1.18-0.645
							c2.04-3.412,5.008-6.126,8.582-7.851C266.077,410.435,266.34,409.668,266.007,408.979z"/>
						<path style="fill:#5B281B;" d="M440.769,301.886c-1.142-5.215-2.617-10.414-4.044-15.442
							c-0.486-1.713-0.989-3.484-1.471-5.229l0,0c-1.712-6.2-3.47-13.421-2.646-20.657c0.687-6.037,3.529-12.007,8.219-17.263
							c0.665-0.746,1.396-1.487,2.169-2.271c3.411-3.461,7.278-7.384,6.284-12.879c-0.249-1.373-0.869-2.637-1.794-3.655
							c-0.327-0.36-0.799-0.516-1.263-0.415c-0.484,0.105-0.894,0.476-1.044,0.946c-0.143,0.448-0.035,0.93,0.291,1.289
							c1.741,1.917,1.356,4.824,0.498,6.73c-0.989,2.195-2.796,3.987-4.543,5.72c-0.455,0.451-0.925,0.917-1.373,1.383
							c-4.821,5.014-7.983,10.404-9.397,16.023c-1.451,5.763-1.259,12.238,0.604,20.376c0.882,3.852,1.995,7.702,3.071,11.425
							c0.821,2.841,1.671,5.778,2.407,8.685c1.924,7.588,3.141,14.232,3.721,20.311c0.71,7.438,0.502,14.138-0.636,20.483
							c-1.844,10.284-6.463,20.25-13.357,28.818c-6.834,8.494-15.584,15.145-25.304,19.233c-1.229,0.517-2.498,1.001-3.772,1.439
							c-0.477,0.164-0.819,0.557-0.916,1.053c-0.097,0.496,0.072,1.017,0.43,1.329c0.209,0.182,0.46,0.282,0.727,0.297
							c0.167,0.009,0.341-0.015,0.514-0.075c10.379-3.563,19.9-9.857,27.534-18.203c7.631-8.342,13.099-18.319,15.813-28.852
							c1.605-6.229,2.284-13.077,2.018-20.355C443.281,315.889,442.385,309.266,440.769,301.886z"/>
						<path style="fill:#5B281B;" d="M404.992,170.797c-2.987-3.676-7.971-5.653-13.004-5.158c-2.706,0.266-5.41,1.292-7.82,2.968
							c-2.271,1.579-4.234,3.69-5.676,6.104c-0.253,0.423-0.263,0.928-0.027,1.352c0.243,0.436,0.72,0.723,1.204,0.73
							c0.461,0.007,0.882-0.235,1.128-0.645c2.275-3.809,5.813-6.542,9.708-7.5c3.979-0.979,8.273,0.032,11.205,2.638
							c1.547,1.375,2.655,3.226,3.205,5.354c0.528,2.044,0.526,4.242-0.006,6.358c-0.992,3.95-3.873,7.691-7.904,10.265
							c-2.473,1.579-4.769,2.246-7.019,2.039c-1.777-0.163-3.49-0.827-4.906-1.889c1.587-1.851,2.913-3.898,2.601-6.31
							c-0.175-1.35-0.934-2.623-2.031-3.404c-0.922-0.657-2.011-0.899-3.065-0.681c-0.744,0.154-1.188,0.839-1.032,1.594
							c0.158,0.762,0.842,1.219,1.593,1.064c0.356-0.074,0.702,0.025,1.028,0.294c0.503,0.415,0.847,1.154,0.839,1.797
							c-0.02,1.522-1.134,2.924-2.196,4.124c-0.35,0.017-0.697,0.173-0.959,0.458c-0.484,0.527-0.484,1.287,0.001,1.808
							c2.194,2.354,5.164,3.676,8.263,3.846c2.033,0.111,4.121-0.273,6.08-1.188c4.822-2.252,8.813-6.396,10.674-11.085
							C408.919,180.58,408.179,174.719,404.992,170.797z"/>
						<path style="fill:#5B281B;" d="M410.98,368.196c-0.327-0.703-1.126-1.001-1.817-0.678c-4.749,2.213-9.73,3.994-14.806,5.294
							c-0.476,0.122-0.838,0.472-0.967,0.936c-0.135,0.481,0,1.017,0.342,1.367c0.226,0.231,0.524,0.362,0.842,0.38
							c0.137,0.007,0.277-0.006,0.418-0.042c5.264-1.348,10.432-3.196,15.358-5.492C411.03,369.644,411.301,368.885,410.98,368.196z
							"/>
						<path style="fill:#5B281B;" d="M335.32,240.252c-2.232-2.926-5.186-5.359-9.03-7.44c-2.98-1.613-6.52-3.009-10.82-4.269
							c-8.124-2.38-16.537-3.303-25.005-2.745c-4.766,0.314-9.481,1.095-14.015,2.32c-0.476,0.129-0.835,0.486-0.96,0.955
							c-0.129,0.484,0.012,1.018,0.357,1.362c0.326,0.324,0.795,0.443,1.257,0.318c7.812-2.111,15.885-2.833,24-2.144
							c4.064,0.345,8.098,1.047,11.99,2.088c4.149,1.109,7.665,2.393,10.747,3.925c4.089,2.033,7.157,4.436,9.377,7.346
							c0.239,0.313,0.583,0.497,0.95,0.518c0.074,0.004,0.15,0.001,0.226-0.008c0.478-0.062,0.912-0.401,1.106-0.865
							C335.69,241.156,335.623,240.648,335.32,240.252L335.32,240.252z"/>
					</g>
					<path style="fill:#5B281B;" d="M307.275,323.697c-8.974-1.097-18.061-1.993-27.008-2.663
						c-8.983-0.673-18.102-1.141-27.104-1.391c-5.045-0.14-10.197-0.215-15.315-0.222c-0.768-0.001-1.37,0.61-1.371,1.392
						c-0.001,0.753,0.563,1.321,1.307,1.323c9.016,0.013,18.119,0.238,27.057,0.67c8.971,0.433,18.054,1.086,26.995,1.94
						c5.009,0.479,10.117,1.035,15.184,1.655c0.032,0.004,0.064,0.007,0.096,0.008c0.694,0.038,1.268-0.443,1.355-1.153
						C308.567,324.475,308.041,323.791,307.275,323.697z"/>
					<path style="fill:#5B281B;" d="M323.309,319.314c-0.281-0.386-0.701-0.579-1.152-0.531c-0.476,0.051-0.915,0.381-1.119,0.842
						c-0.203,0.457-0.147,0.973,0.148,1.378c1.023,1.404,1.658,2.699,1.886,3.851c0.13,0.654,0.023,1.347-0.271,1.766
						c-0.176,0.251-0.413,0.395-0.722,0.442c-0.47,0.07-0.85,0.366-1.017,0.79c-0.177,0.451-0.09,0.997,0.222,1.389
						c0.245,0.307,0.599,0.487,0.982,0.508c0.095,0.005,0.191,0.001,0.288-0.014c1.053-0.158,1.965-0.767,2.566-1.715
						c0.522-0.821,0.784-1.871,0.719-2.88C325.691,322.824,324.324,320.706,323.309,319.314z"/>
					<path style="fill:#5B281B;" d="M327.308,318.011c-0.499-0.005-0.983,0.263-1.231,0.684c-0.235,0.398-0.235,0.885,0.001,1.303h0
						c0.994,1.763,1.238,3.79,0.687,5.707c-0.211,0.735,0.209,1.479,0.956,1.694c0.108,0.031,0.215,0.049,0.32,0.055
						c0.605,0.033,1.143-0.337,1.32-0.951c0.751-2.614,0.425-5.456-0.896-7.799C328.223,318.275,327.791,318.016,327.308,318.011z"
						/>
					<path style="fill:#5B281B;" d="M330.898,315.562L330.898,315.562c-0.513-0.568-1.334-0.603-1.91-0.082
						c-0.573,0.518-0.62,1.335-0.108,1.9c1.482,1.639,2.124,3.971,1.677,6.088c-0.104,0.493,0.057,0.989,0.432,1.326
						c0.25,0.225,0.572,0.354,0.892,0.372c0.16,0.009,0.32-0.01,0.47-0.06c0.428-0.14,0.73-0.486,0.828-0.951
						C333.832,321.075,332.979,317.863,330.898,315.562z"/>
				</g>
			</g>
		</g>
	</g>
	<g>
		<path style="fill:#EA5C5C;" d="M269.803,56.837c-2.28-11.757-12.383-19.037-24.021-14.151
			c-7.709,3.236-11.507,9.771-13.608,17.108c-6.412-9.294-18.188-14.569-28.535-7.01c-12.547,9.166-7.72,24.572,0.971,34.439
			c9.743,11.062,22.59,20.159,34.805,28.272c1.558,1.035,3.082,1.034,4.335,0.437c1.828,0.096,3.735-0.432,5.28-1.616
			c2.568-1.969,4.309-5.39,6.057-8.05c2.031-3.09,4.025-6.207,5.853-9.422C267.825,84.736,272.522,70.859,269.803,56.837z"/>
		<path style="fill:#EA5C5C;" d="M182.827,71.6c-0.743-3.832-4.036-6.205-7.83-4.613c-2.513,1.055-3.751,3.185-4.436,5.576
			c-2.09-3.029-5.928-4.749-9.301-2.285c-4.09,2.988-2.516,8.009,0.317,11.226c3.176,3.606,7.363,6.571,11.345,9.215
			c0.508,0.337,1.004,0.337,1.413,0.142c0.596,0.031,1.217-0.141,1.721-0.527c0.837-0.642,1.404-1.757,1.974-2.624
			c0.662-1.007,1.312-2.023,1.908-3.071C182.182,80.695,183.713,76.171,182.827,71.6z"/>
		<path style="fill:#EA5C5C;" d="M307.53,74.863c2.122-3.277,1.394-7.27-2.443-8.753c-2.542-0.982-4.911-0.306-7.063,0.942
			c0.595-3.632-0.979-7.533-5.118-8.096c-5.019-0.683-7.367,4.026-7.556,8.308c-0.212,4.8,0.749,9.841,1.785,14.507
			c0.132,0.595,0.49,0.94,0.919,1.082c0.408,0.436,0.975,0.743,1.605,0.814c1.048,0.118,2.23-0.292,3.242-0.522
			c1.175-0.267,2.348-0.548,3.504-0.89C300.76,80.968,305,78.771,307.53,74.863z"/>
	</g>
</g>
</svg>
