<?xml version="1.0" encoding="utf-8"?>
<!-- Generator: Adobe Illustrator 27.5.0, SVG Export Plug-In . SVG Version: 6.00 Build 0)  -->
<svg version="1.1" id="Layer_1" xmlns="http://www.w3.org/2000/svg" xmlns:xlink="http://www.w3.org/1999/xlink" x="0px" y="0px"
	 viewBox="0 0 4000 4000" style="enable-background:new 0 0 4000 4000;" xml:space="preserve">
<g>
	<g>
		<rect style="fill:#FFCAEC;" width="4000" height="4000"/>
	</g>
	<g>
		<g>
			<g>
				<g>
					<path style="fill:#D3613B;" d="M1681.992,3195.527c-506.784,176.514-756.1-149.982-657.743-765.033
						c4.967-31.063,5.131-62.885-0.975-93.744c-27.837-140.695-155.293-160.939-286.049-73.75
						c-96.494,64.343-220.858-32.365-182.091-141.673c1.269-3.577,2.632-7.122,4.086-10.627
						c16.237-39.132,45.972-71.109,82.449-92.657c192.917-113.965,448.335-118.582,577.374,94.292
						c48.065,79.292,67.353,172.918,57.704,265.137c-47.233,451.389,28.547,706.227,272.237,596.236L1681.992,3195.527z"/>
				</g>
				<g>
					<path style="fill:#F9D6B6;" d="M1219.022,2112.3c-72.162,13.272-133.509,44.88-168.508,120.925
						c-12.928,28.019-22.268,62.085-27.233,103.523c-27.823-140.686-155.286-160.938-286.042-73.735
						c-44.978,29.986-95.954,24.971-133.706,0.049c-4.965-3.244-9.635-6.833-14.108-10.765
						c-34.459-30.33-52.647-79.24-34.311-130.953v-0.049c1.278-3.539,2.655-7.078,4.08-10.569l0.049-0.049
						c0.639-1.573,1.327-3.097,2.015-4.621c0.59-1.278,1.18-2.556,1.77-3.834c0.688-1.377,1.376-2.753,2.065-4.129
						c3.47-6.809,7.459-13.303,11.727-19.602c0.025-0.036,0.046-0.074,0.07-0.11c0,0.001,0,0.002,0.001,0.003
						c16.648-24.527,38.951-45.09,64.738-60.367C834.618,1904.073,1090.035,1899.453,1219.022,2112.3z"/>
				</g>
				<g>
					<path style="fill:#BC462F;" d="M1464.805,3242.163c-358.646,21.482-523.615-292.186-440.541-811.673
						c4.965-31.067,5.112-62.871-0.983-93.742c4.964-41.439,14.304-75.504,27.233-103.523c0.196,0.787,0.344,1.524,0.491,2.311
						c6.095,30.821,5.899,62.675,0.934,93.741c-78.454,490.484,64.297,797.417,382.34,812.066
						C1439.538,3174.229,1449.468,3207.803,1464.805,3242.163z"/>
				</g>
				<g>
					<path style="fill:#F4B68C;" d="M1050.514,2233.225c-12.928,28.019-22.268,62.085-27.233,103.523
						c-27.823-140.686-155.286-160.938-286.042-73.735c-44.978,29.986-95.954,24.971-133.706,0.049
						c-4.965-3.244-9.635-6.882-14.108-10.765c-34.459-30.33-52.647-79.24-34.311-130.953v-0.049
						c1.278-3.539,2.655-7.078,4.08-10.569l0.049-0.049c0.639-1.573,1.327-3.097,2.015-4.621c0.59-1.278,1.18-2.556,1.77-3.834
						c0.688-1.377,1.376-2.753,2.065-4.129c3.539-6.784,7.472-13.371,11.798-19.712c12.191,81.207,109.373,135.869,188.024,83.37
						C894.933,2075.089,1021.708,2094.604,1050.514,2233.225z"/>
				</g>
				<g style="opacity:0.2;">
					<path d="M1681.979,3195.514c-78.7,27.429-151.255,42.717-217.174,46.649c-15.337-34.36-25.266-67.934-30.526-100.82
						c60.659,2.802,127.659-5.014,200.706-24.235L1681.979,3195.514z"/>
				</g>
				<g>
					<path style="fill:#650000;" d="M1430.789,3264.672c-107.4,0-199.216-30.469-271.638-91.113
						c-156.746-131.25-212.236-396.357-156.245-746.479c4.81-30.059,4.529-59.038-0.835-86.138
						c-9.958-50.342-34.287-84.868-70.354-99.849c-48.037-19.946-114.558-5.41-182.5,39.893
						c-51.88,34.585-117.473,31.953-167.109-6.704c-49.575-38.618-68.159-101.489-47.344-160.181c1.399-3.94,2.898-7.842,4.5-11.694
						c17.349-41.821,49.817-78.394,91.414-102.974c104.7-61.853,220.444-89.661,325.95-78.298
						c120.234,12.947,217.368,75.188,280.901,179.993c49.421,81.528,70.984,180.469,60.718,278.594
						c-32.502,310.601-3.432,515.586,81.853,577.188c39.185,28.301,93.017,27.334,159.995-2.9c10-4.507,21.79-0.82,27.429,8.589
						l133.008,221.816c3.345,5.576,3.999,12.363,1.782,18.477c-2.217,6.118-7.068,10.908-13.21,13.047
						C1595.711,3248.466,1509.105,3264.672,1430.789,3264.672z M885.394,2189.238c22.473,0,43.647,3.936,62.905,11.934
						c34.885,14.492,79.888,49.048,96.179,131.382c6.358,32.129,6.731,66.23,1.113,101.353
						c-53.494,334.502-3.306,585.415,141.313,706.514c108.279,90.659,267.873,105.42,462.71,43.14l-109.509-182.627
						c-74.241,29.268-136.516,26.274-185.317-8.979c-101.218-73.11-134.707-280.61-99.536-616.733
						c9.29-88.794-10.132-178.174-54.692-251.68c-125.899-207.7-372.271-190.637-547.896-86.89
						c-33.591,19.849-59.685,49.087-73.479,82.334c-1.313,3.164-2.539,6.353-3.679,9.57c-17.578,49.561,5.605,90.156,33.167,111.626
						c27.612,21.509,72.729,34.072,116.563,4.839C780.333,2208.276,835.982,2189.238,885.394,2189.238z"/>
				</g>
			</g>
			<g>
				<g>
					<path style="fill:#D3613B;" d="M1644.408,2645.606c-173.412,211.171-312.745,427.208-125.458,689.875
						c154.191,7.245,297.46,5.752,406.573-23.055c150.703,35.225,303.908,35.128,459.389,2.882
						c144.668,24.59,292.845,31.821,444.091,23.871c49.419-332.01-110.74-531.322-329.433-693.573H1644.408z"/>
				</g>
				<g>
					<path style="fill:#BC462F;" d="M2828.997,3339.198c-151.255,7.914-299.412,0.688-444.08-23.89
						c-155.482,32.247-308.703,32.345-459.417-2.9c-109.078,28.806-252.37,30.329-406.574,23.054
						c-22.661-31.755-40.505-62.822-54.121-93.299c-15.337-34.36-25.266-67.934-30.526-100.82
						c-28.708-179.323,81.305-338.885,210.144-495.744h855.127C2718.248,2807.865,2878.399,3007.146,2828.997,3339.198z"/>
				</g>
				<g>
					<path style="fill:#650000;" d="M2713.895,3363.842c-113.118,0-223.213-8.882-328.591-26.548
						c-157.053,32.026-311.592,31.143-459.487-2.617c-122.329,31.04-281.951,28.306-407.878,22.397
						c-6.624-0.313-12.737-3.647-16.585-9.043c-198.02-277.725-46.162-506.064,126.35-716.143c4.107-5,10.234-7.896,16.704-7.896
						h855.164c4.639,0,9.153,1.489,12.878,4.253c129.121,95.796,215.339,187.974,271.333,290.093
						c68.65,125.2,90.435,263.896,66.602,424.023c-1.514,10.166-9.98,17.861-20.244,18.398
						C2791.087,3362.817,2752.315,3363.842,2713.895,3363.842z M2384.913,3293.696c1.211,0,2.422,0.098,3.623,0.303
						c133.772,22.739,275.496,30.962,421.516,24.463c42.19-330.581-135.3-514.912-317.644-651.245h-837.766
						c-163.682,200.371-293.22,401.255-124.085,647.163c122.905,5.493,275.462,7.241,389.448-22.852
						c3.411-0.903,6.997-0.957,10.437-0.146c144.57,33.789,296.001,34.717,450.081,2.764
						C2381.971,3293.842,2383.441,3293.696,2384.913,3293.696z"/>
				</g>
			</g>
			<g>
				<g>
					<path style="fill:#F9D6B6;" d="M1584.15,2989.851c-99.813-201.235-216.796-281.193-230.213-177.087
						c-69.489-12.33-113.322,8.423-122.351,74.054c-92.957,50.363-4.625,253.577,203.806,447.553
						c44.678,41.58,110.906,51.698,164.936,23.311c103.467-54.36,167.05-208.962,88.953-452.263
						c-5.597-17.436-25.589-25.713-41.681-16.973C1615.237,2906.023,1591.409,2935.949,1584.15,2989.851z"/>
				</g>
				<g>
					<path style="fill:#F4B68C;" d="M1600.328,3210.045c-54.03,28.386-120.258,18.269-164.936-23.311
						c-108.825-101.279-184.884-205.062-219.521-288.307c-65.344,64.918,24.522,254.468,219.521,435.944
						c44.679,41.58,110.906,51.698,164.936,23.311c84.736-44.519,142.662-156.314,117.982-328.958
						C1702.876,3118.732,1657.775,3179.864,1600.328,3210.045z"/>
				</g>
				<g>
					<path style="fill:#650000;" d="M1529.954,3375.414c-38.889,0-77.637-14.59-107.708-42.578
						c-151.89-141.353-242.449-292.334-230.711-384.639c3.425-26.938,15.576-48.315,35.352-62.456
						c5.644-27.661,18.057-48.613,36.975-62.388c20.076-14.619,47.029-20.547,80.286-17.666
						c9.871-29.478,29.597-37.515,41.833-39.565c49.824-8.306,119.729,57.9,184.177,171.89
						c12.026-24.541,30.178-43.247,54.753-56.597c12.756-6.934,27.815-7.803,41.323-2.383c13.625,5.464,24.019,16.631,28.511,30.63
						c34.917,108.774,42.678,208.823,22.441,289.331c-18.294,72.773-59.514,129.219-116.072,158.936
						C1578.746,3369.687,1554.319,3375.414,1529.954,3375.414z M1328.079,2848.154c-16.506,0-29.49,3.389-38.774,10.146
						c-11.47,8.35-18.445,22.593-21.328,43.535c-0.938,6.816-5.066,12.783-11.116,16.06c-12.932,7.007-20.276,18.706-22.444,35.757
						c-7.959,62.593,56.638,198.047,217.278,347.544c35.496,33.032,87.468,40.454,129.316,18.467
						c45.525-23.921,78.999-70.518,94.253-131.206c18.267-72.666,10.769-164.502-21.675-265.581
						c-0.752-2.339-2.48-3.335-3.445-3.721c-1.086-0.439-2.768-0.747-4.602,0.249c-27.666,15.024-42.974,40.01-48.171,78.628
						c-1.267,9.414-8.533,16.895-17.908,18.442c-9.358,1.509-18.655-3.213-22.876-11.724
						c-72.302-145.762-142.249-199.463-163.455-195.996c-5.855,0.981-9.431,12.891-10.825,23.711
						c-0.754,5.859-3.877,11.157-8.64,14.658c-4.761,3.496-10.742,4.907-16.572,3.857
						C1346.463,2849.096,1336.781,2848.154,1328.079,2848.154z"/>
				</g>
				<g>
					<path style="fill:#650000;" d="M1445.474,2986.679c-5.469,0-10.938-2.061-15.146-6.191
						c-64.138-63.003-92.222-109.692-91.062-151.387c0.332-11.934,10.217-21.289,22.21-21.006
						c11.931,0.332,21.335,10.278,21.003,22.207c-0.779,27.896,24.783,66.934,78.142,119.346c8.516,8.364,8.638,22.051,0.273,30.566
						C1456.663,2984.521,1451.068,2986.679,1445.474,2986.679z"/>
				</g>
				<g>
					<path style="fill:#650000;" d="M1354.119,3056.62c-6.387,0-12.708-2.817-16.975-8.218l-107.539-136.113
						c-7.4-9.365-5.806-22.959,3.562-30.356c9.373-7.402,22.959-5.806,30.359,3.56l107.539,136.113
						c7.4,9.365,5.806,22.959-3.562,30.356C1363.536,3055.097,1358.809,3056.62,1354.119,3056.62z"/>
				</g>
				<g>
					<path style="fill:#650000;" d="M1492.706,2961.953c-41.571,31.797-81.093,60.886-119.543,96.073
						c-12.962,11.449-25.928,23.246-40.27,34.562c-2.621,2.111-6.474,1.671-8.557-0.974c-1.365-1.729-1.632-3.979-0.911-5.903
						c6.586-17.4,15.801-33.42,26.544-48.445c32.525-44.531,81.26-84.123,138.514-87.135
						C1494.756,2949.827,1497.742,2958.269,1492.706,2961.953L1492.706,2961.953z"/>
				</g>
				<g>
					<path style="fill:#650000;" d="M1597.478,2993.235l3.009,33.84l0.184,2.083c0.719,8.076-3.895,15.41-10.903,18.547
						c-20.63,9.192-39.957,22.417-57.172,38.745c-17.245,16.309-32.369,35.581-45.525,56.416c-4.756,7.562-16.509,1.68-13.257-6.66
						c19.105-49.088,49.772-95.028,94.332-125.932c0,0-10.718,20.627-10.718,20.627l-3.009-33.84
						C1552.746,2968.571,1594.069,2964.826,1597.478,2993.235L1597.478,2993.235z"/>
				</g>
				<g>
					<path style="fill:#F9D6B6;" d="M2718.345,2993.127c95.754-193.054,207.982-269.76,220.853-169.887
						c66.664-11.829,108.714,8.08,117.377,71.043c89.177,48.315,4.437,243.267-195.52,429.356
						c-42.862,39.889-106.397,49.596-158.23,22.363c-99.26-52.15-160.259-200.466-85.336-433.875
						c5.369-16.727,24.549-24.668,39.987-16.283C2688.523,2912.706,2711.382,2941.416,2718.345,2993.127z"/>
				</g>
				<g>
					<path style="fill:#F4B68C;" d="M2861.055,3189.843c-42.861,39.889-106.397,49.596-158.23,22.363
						c-55.873-29.355-99.619-89.183-113.828-177.503c-22.13,163.212,33.234,268.957,113.828,311.299
						c51.833,27.233,115.368,17.526,158.23-22.363c184.773-171.959,271.149-351.473,212.837-415.87
						C3041.777,2988.527,2967.86,3090.445,2861.055,3189.843z"/>
				</g>
				<g>
					<path style="fill:#650000;" d="M2765.582,3383.022c-24.934,0.005-49.919-5.859-72.81-17.891
						c-57.927-30.43-100.151-88.257-118.894-162.827c-20.754-82.563-12.788-185.19,23.032-296.782
						c4.563-14.214,15.112-25.547,28.945-31.094c13.701-5.488,28.987-4.609,41.936,2.422c25.449,13.818,44.163,33.271,56.46,58.853
						c66.194-117.427,138.035-185.732,189.065-177.173c12.485,2.09,32.649,10.322,42.644,40.669
						c34.229-3.008,61.921,3.003,82.512,17.988c19.355,14.092,32.041,35.566,37.786,63.931
						c20.281,14.424,32.742,36.294,36.25,63.872c12.029,94.6-80.891,249.438-236.729,394.468
						C2845.015,3368.095,2805.367,3383.022,2765.582,3383.022z M2644.288,2914.086c-0.913,0-1.719,0.215-2.346,0.469
						c-1.084,0.435-3.032,1.553-3.875,4.18c-33.35,103.896-41.05,198.311-22.266,273.032
						c15.703,62.48,50.181,110.464,97.075,135.098c43.193,22.695,96.826,15.044,133.452-19.048
						c165.105-153.652,231.487-292.964,223.296-357.373c-2.251-17.715-9.888-29.868-23.345-37.158
						c-6.05-3.276-10.178-9.243-11.116-16.06c-2.983-21.67-10.222-36.421-22.131-45.088c-14.695-10.698-38.264-13.257-70.059-7.617
						c-5.818,1.045-11.809-0.356-16.572-3.857s-7.886-8.799-8.64-14.658c-0.708-5.493-3.635-23.511-11.597-24.844
						c-22.156-3.794-94.094,51.641-168.457,201.567c-4.219,8.506-13.503,13.237-22.876,11.724
						c-9.373-1.548-16.641-9.028-17.908-18.442c-5.366-39.858-21.179-65.649-49.763-81.172
						C2646.141,2914.286,2645.164,2914.086,2644.288,2914.086z"/>
				</g>
				<g>
					<path style="fill:#650000;" d="M2852.325,2983.847c-5.596,0-11.189-2.158-15.42-6.465c-8.364-8.516-8.242-22.202,0.276-30.566
						c54.912-53.936,81.213-94.16,80.41-122.974c-0.332-11.929,9.072-21.875,21.003-22.207c11.836-0.283,21.877,9.072,22.209,21.006
						c1.187,42.642-27.598,90.449-93.335,155.015C2863.262,2981.786,2857.791,2983.847,2852.325,2983.847z"/>
				</g>
				<g>
					<path style="fill:#650000;" d="M2946.134,3055.668c-4.692,0-9.417-1.523-13.384-4.658c-9.368-7.397-10.962-20.991-3.562-30.356
						l110.427-139.771c7.4-9.37,20.991-10.962,30.359-3.56c9.368,7.397,10.962,20.991,3.562,30.356l-110.427,139.771
						C2958.841,3052.851,2952.518,3055.668,2946.134,3055.668z"/>
				</g>
				<g>
					<path style="fill:#650000;" d="M2808.103,2947.061c75.851,4.988,141.86,71.732,169.421,139.152
						c2.284,5.641-4.851,10.812-9.469,6.881c-28.225-22.908-53.241-47.482-80.836-70.09c-27.441-22.832-54.51-41.987-83.339-64.121
						C2798.756,2955.266,2801.919,2946.604,2808.103,2947.061L2808.103,2947.061z"/>
				</g>
				<g>
					<path style="fill:#650000;" d="M2739.874,2995.042l-3.09,34.749l-10.718-20.63c23.335,16.218,43.127,36.401,59.045,58.469
						c15.972,22.095,28.242,45.989,37.932,70.432c1.515,3.823-0.355,8.149-4.178,9.666c-3.391,1.345-7.179,0.024-9.05-2.959
						c-25.826-41.474-61.147-78.49-105.37-98.176c-7.41-3.328-11.575-10.911-10.907-18.572l0.188-2.058l3.09-34.749
						C2700.222,2962.858,2741.518,2966.482,2739.874,2995.042L2739.874,2995.042z"/>
				</g>
			</g>
			<g>
				<g>
					<path style="fill:#D3613B;" d="M1353.441,2671.934c-104.389-173.466,5.803-425.785,256.062-588.072l-23.495,561.707
						L1353.441,2671.934z"/>
				</g>
				<g>
					<path style="fill:#650000;" d="M1353.436,2693.549c-7.52,0-14.578-3.931-18.513-10.474
						c-110.288-183.267,2.7-448.667,262.82-617.349c6.782-4.399,15.454-4.644,22.476-0.635c7.019,4.004,11.218,11.597,10.879,19.673
						l-23.494,561.709c-0.444,10.64-8.577,19.375-19.16,20.571l-232.568,26.362
						C1355.059,2693.5,1354.244,2693.549,1353.436,2693.549z M1586.104,2126.073c-209.729,151.606-302.461,368.667-220.891,522.773
						l199.973-22.666L1586.104,2126.073z"/>
				</g>
				<g>
					<path style="fill:#D3613B;" d="M2904.051,2671.934c104.388-173.466-5.803-425.785-256.063-588.072l23.495,561.707
						L2904.051,2671.934z"/>
				</g>
				<g>
					<path style="fill:#650000;" d="M2904.056,2693.549c-0.808,0-1.624-0.049-2.439-0.142l-232.568-26.362
						c-10.583-1.196-18.716-9.932-19.16-20.571l-23.494-561.709c-0.339-8.076,3.86-15.669,10.879-19.673
						c7.024-4.009,15.691-3.765,22.476,0.635c260.117,168.677,373.105,434.082,262.82,617.349
						C2918.634,2689.618,2911.575,2693.549,2904.056,2693.549z M2692.305,2626.181l199.973,22.666
						c81.567-154.111-11.165-371.167-220.891-522.773L2692.305,2626.181z"/>
				</g>
			</g>
			<g>
				<g>
					<g>
						<path style="fill:#D2623A;" d="M2249.185,792.159c-3.104-70.36-24.113-129.617-63.027-177.769
							c-46.28,73.678-103.952,137.317-209.928,158.389c-874.44,77.302-1167.387,1487.951,73.456,1489.755
							c52.038,0.076,104.009,3.04,156.044,3.571c982.88,30.133,1153.548-1140.922,244.334-1439.743
							c0.413-40.438,31.416-61.932,73.131-76.793C2427.915,705.839,2336.245,715.139,2249.185,792.159z"/>
					</g>
					<g>
						<path style="fill:#F9D6B6;" d="M2737.563,1953.575c-0.132,37.614-13.358,73.608-37.427,106.922
							c-86.443,119.401-312.877,204.07-578.369,203.14c-5.285-0.019-10.57-0.093-15.854-0.168c-0.787-0.003-1.518-0.005-2.305-0.064
							c-5.791-0.132-11.638-0.265-17.428-0.398c-239.323-7.81-441.745-84.929-530.317-192.123
							c-30.905-37.442-47.91-78.546-47.759-121.614c0.224-63.871,38.214-123.112,103.158-172.25
							c-91.342-71.051-149.933-182.132-149.496-306.782c0.748-213.653,174.582-386.218,388.179-385.47
							c110.537,0.387,210.06,47.121,280.306,121.697c70.766-74.082,170.615-120.118,281.151-119.731
							c213.653,0.748,386.218,174.526,385.47,388.179c-0.444,126.842-61.842,239.19-156.377,309.422
							C2702.113,1833.241,2737.781,1891.334,2737.563,1953.575z"/>
					</g>
					<g>
						<g style="opacity:0.2;">
							<path d="M2519.525,747.91c-24.375-10.846-48.511-18.182-72.394-21.803c-0.909-0.138-1.77,0.5-1.891,1.413
								c-0.305,2.316-0.527,4.683-0.603,7.142c-0.022,0.723,0.452,1.389,1.138,1.615c19.75,6.515,38.969,13.457,57.702,20.774
								c0.4,0.156,0.835,0.145,1.226-0.032c4.712-2.141,9.615-4.163,14.707-6.068
								C2520.781,750.437,2520.861,748.505,2519.525,747.91z"/>
						</g>
						<g>
							<g>
								<path style="fill:#F4B68C;" d="M2200.285,2175.638c-52.063-0.52-104.004-3.513-156.068-3.583
									c-202.128-0.314-363.531-37.988-488.355-101.173c88.573,107.194,290.994,184.313,530.317,192.123
									c5.791,0.133,11.638,0.266,17.428,0.398c0.787,0.059,1.518,0.062,2.305,0.064c5.285,0.075,10.57,0.15,15.854,0.168
									c265.492,0.93,491.926-83.74,578.369-203.14C2569.2,2137.46,2401.831,2181.854,2200.285,2175.638z"/>
							</g>
						</g>
						<g>
							<path style="fill:#BC462F;" d="M2205.704,2266.124c-33.284-0.398-66.509-1.695-99.79-2.655
								c5.285,0.075,10.57,0.15,15.854,0.168c265.492,0.93,491.926-83.74,578.369-203.14
								c63.722-37.504,118.868-82.685,165.039-133.575c7.281-8.015,10.746-17.842,10.779-27.512
								c0.058-16.474-9.782-32.533-27.134-38.778c-0.842-0.34-1.289-1.242-1.005-2.084l15.554-42.339
								c0.284-0.73,1.072-1.177,1.859-1.005l71.238,15.937c0.674,0.115,1.35-0.164,1.746-0.781
								c62.423-100.087,96.782-213.991,101.631-330.36c0.063-2.024,3.044-2.126,3.261-0.101
								C3078.175,1889.66,2781.162,2283.77,2205.704,2266.124z"/>
						</g>
						<g>
							<g>
								<path style="fill:#BC462F;" d="M1555.862,2070.883c-96.087-48.69-170.474-112.485-225.093-185.994
									c-0.672-0.846-0.274-2.138,0.74-2.528l76.448-26.776c0.844-0.334,1.297-1.233,1.019-2.077l-15.257-42.447
									c-0.279-0.732-1.064-1.184-1.852-1.018l-95.599,20.637c-0.675,0.166-1.405-0.174-1.74-0.793
									c-37.277-64.284-61.377-134.312-73.323-207.053c-0.33-1.969-3.312-1.698-3.262,0.326
									c10.076,333.844,255.5,638.544,831.749,639.382c12.144,0.042,24.344,0.198,36.488,0.465
									C1846.857,2255.196,1644.435,2178.077,1555.862,2070.883z M1295.199,1831.07l34.06,51.79
									C1316.892,1866.061,1305.482,1848.76,1295.199,1831.07z"/>
							</g>
						</g>
					</g>
					<g style="opacity:0.6;">
						<g>
							<path style="fill:#FFFFFF;" d="M2449.8,901.55c389.046,127.863,580.343,415.426,594.923,700.248
								c17.324-298.366-159.636-615.675-555.476-761.753C2465.576,854.031,2450.091,873.086,2449.8,901.55z"/>
						</g>
						<g>
							<path style="fill:#FFFFFF;" d="M1975.967,847.966c105.977-21.071,163.648-84.71,209.928-158.388
								c38.914,48.153,59.923,107.409,63.027,177.769c66.034-58.418,134.722-77.844,205.623-64.755
								c9.998-25.654,36.006-41.394,68.65-53.023c-95.279-43.73-186.949-34.43-274.01,42.59
								c-3.104-70.36-24.112-129.617-63.027-177.769c-46.28,73.678-103.952,137.317-209.928,158.389
								c-473.677,41.874-776.682,474.986-757.737,863.48C1238.838,1269.004,1532.673,887.154,1975.967,847.966z"/>
						</g>
					</g>
					<g>
						<path style="fill:#650000;" d="M1991.1,1885.44c-0.966,275.951,263.874,313.728,264.95,6.486
							C2168.97,1925.061,2080.616,1921.84,1991.1,1885.44z"/>
					</g>
					<g>
						<path style="fill:#FC4F8B;" d="M2222.584,2045.911c-50.357,88.162-145.197,79.187-196.394-9.23
							C2062.559,1953.946,2199.878,1957.794,2222.584,2045.911z"/>
					</g>
					<g>
						<path style="fill:#650000;" d="M2242.288,2291.791c-12.283,0-24.629-0.19-37.075-0.566
							c-23.989-0.249-48.225-1.016-71.667-1.758c-27.554-0.869-56.045-1.768-83.894-1.807
							c-273.56-0.4-489.148-66.885-640.776-197.607c-133.137-114.778-207.725-272.622-215.701-456.465
							c-8.687-200.22,64.688-410.374,201.309-576.572c147.195-179.062,352.48-288.813,578.145-309.141
							c100.723-20.471,151.934-82.656,192.256-146.851c4.314-6.87,11.682-11.235,19.783-11.716
							c8.052-0.479,15.933,2.979,21.033,9.289c33.25,41.143,54.629,90.086,63.821,145.952
							c81.401-54.973,170.056-61.003,264.155-17.815c9.29,4.263,15.068,13.73,14.619,23.94c-0.449,10.21-7.041,19.131-16.667,22.561
							c-33.162,11.814-47.153,24.37-52.825,36.34c210.84,73.674,376.299,199.155,479.426,363.862
							c96.697,154.436,132.954,336.116,102.095,511.575c-30.3,172.28-123.811,326.577-263.311,434.468
							C2650.831,2232.538,2459.656,2291.786,2242.288,2291.791z M2186.636,658.998c-42.837,60.244-102.69,117.979-205.508,138.423
							c-0.889,0.176-1.785,0.303-2.688,0.383c-459.568,40.627-751.108,463.831-735.066,833.606
							c16.433,378.745,317.871,605.288,806.348,605.996c28.608,0.044,57.485,0.957,85.413,1.841
							c23.262,0.732,47.314,1.494,70.85,1.733c0.173,0,0.344,0.005,0.515,0.01c517.703,15.864,756.775-294.272,804.333-564.68
							c52.9-300.779-102.405-672.856-568.613-826.079c-10.4-3.42-17.39-13.179-17.28-24.126
							c0.342-33.499,16.584-56.328,35.662-71.829c-69.541-16.135-133.667,2.649-194.768,56.699
							c-7.251,6.414-17.546,8.093-26.46,4.312c-8.914-3.782-14.861-12.349-15.288-22.024
							C2221.832,742.199,2209.261,697.192,2186.636,658.998z"/>
					</g>
					<g>
						<path style="fill:#650000;" d="M2130.997,1935.168c-75.122,0-150.342-21.331-197.2-63.897
							c-8.218-7.463-8.828-20.176-1.365-28.394c7.466-8.215,20.176-8.826,28.391-1.362c77.2,70.117,260.532,70.764,338.218,1.184
							c8.271-7.407,20.977-6.702,28.384,1.563c7.405,8.269,6.707,20.977-1.563,28.384
							C2279.288,1914.357,2205.189,1935.168,2130.997,1935.168z"/>
					</g>
					<g>
						<path style="fill:#650000;" d="M2130.313,2127.797c-0.127,0-0.249-0.005-0.376-0.005
							c-77.458-0.269-159.487-85.327-158.938-242.422c0.024-6.677,3.362-12.908,8.909-16.623c5.549-3.718,12.583-4.439,18.762-1.926
							c86.795,35.295,168.655,37.363,250.232,6.318c6.184-2.346,13.142-1.506,18.586,2.258c5.444,3.769,8.684,9.978,8.662,16.599
							C2275.579,2054.946,2202.554,2127.797,2130.313,2127.797z M2012.156,1914.616c7.988,112.351,64.402,172.791,117.922,172.981
							c0.076,0,0.159,0,0.237,0c48.474,0.005,97.466-51.997,104.719-167.393C2162.564,1941.51,2087.823,1939.643,2012.156,1914.616z
							"/>
					</g>
					<g>
						<path style="fill:#650000;" d="M2222.545,2066.034c-8.953,0.005-17.117-6.021-19.451-15.093
							c-9.236-35.898-42.28-51.111-70.125-53.379c-32.512-2.644-72.449,10.923-88.403,47.202
							c-4.468,10.161-16.333,14.775-26.489,10.308c-10.161-4.468-14.778-16.328-10.31-26.489
							c20.708-47.087,72.334-75.652,128.464-71.086c53.127,4.324,93.667,36.292,105.793,83.425
							c2.766,10.752-3.706,21.709-14.458,24.477C2225.889,2065.829,2224.202,2066.034,2222.545,2066.034z"/>
					</g>
					<g>
						
							<ellipse transform="matrix(0.9399 -0.3414 0.3414 0.9399 -480.6581 811.9141)" style="fill:#650000;" cx="2066.113" cy="1771.385" rx="18.844" ry="28.475"/>
					</g>
					<g>
						
							<ellipse transform="matrix(0.348 -0.9375 0.9375 0.348 -231.5439 3210.7188)" style="fill:#650000;" cx="2192.573" cy="1771.828" rx="28.475" ry="18.844"/>
					</g>
					<g>
						
							<ellipse transform="matrix(0.9893 -0.146 0.146 0.9893 -218.8433 279.1567)" style="fill:#650000;" cx="1792.978" cy="1630.953" rx="129.032" ry="166.983"/>
					</g>
					<g>
						
							<ellipse transform="matrix(0.9893 -0.146 0.146 0.9893 -213.6938 284.6531)" style="fill:#FFFFFF;" cx="1833.018" cy="1598.616" rx="39.407" ry="58.059"/>
					</g>
					<g style="opacity:0.35;">
						
							<ellipse transform="matrix(0.9028 -0.4301 0.4301 0.9028 -558.6138 917.2603)" style="fill:#FFFFFF;" cx="1749.877" cy="1694.408" rx="31.2" ry="45.969"/>
					</g>
					<g>
						
							<ellipse transform="matrix(0.1529 -0.9882 0.9882 0.1529 466.2822 3810.5103)" style="fill:#650000;" cx="2455.796" cy="1633.275" rx="166.983" ry="129.032"/>
					</g>
					<g>
						
							<ellipse transform="matrix(0.1529 -0.9882 0.9882 0.1529 464.7905 3743.5354)" style="fill:#FFFFFF;" cx="2415.983" cy="1600.657" rx="58.059" ry="39.407"/>
					</g>
					<g style="opacity:0.35;">
						
							<ellipse transform="matrix(0.4364 -0.8998 0.8998 0.4364 -118.7419 3204.5002)" style="fill:#FFFFFF;" cx="2498.451" cy="1697.03" rx="45.969" ry="31.2"/>
					</g>
				</g>
				<g>
					<g>
						<path style="fill:#F9D6B6;" d="M2878.705,1446.193c380.446-280.744,524.543,542.598-1.28,365.57
							C2904.161,1693.995,2902.96,1571.885,2878.705,1446.193z"/>
					</g>
					<g>
						<path d="M2886.973,1440.25c-2.744,1.927-5.499,3.9-8.268,5.943c10.501,54.415,16.661,108.155,18.124,161.166
							C2898.678,1552.453,2895.277,1496.732,2886.973,1440.25z"/>
					</g>
					<g>
						<path style="fill:#F4B68C;" d="M2887.067,1761.377c-2.682,16.878-5.85,33.68-9.642,50.386
							c257.789,86.789,354.545-66.862,341.389-212.978C3206.284,1723.626,3106.73,1831.381,2887.067,1761.377z"/>
					</g>
					<g style="opacity:0.6;">
						<g>
							<path style="fill:#FFFFFF;" d="M3219.006,1648.015c14.077-166.696-125.394-360.409-340.301-201.822
								c2.581,13.376,4.844,26.703,6.897,39.997C3077.438,1350.449,3207.537,1496.431,3219.006,1648.015z"/>
						</g>
						<g>
							<path style="fill:#FFFFFF;" d="M2896.777,1657.407c-1.55,52.214-7.85,103.689-19.353,154.356
								c2.764,0.931,5.483,1.794,8.211,2.669C2894.373,1762.871,2897.947,1710.507,2896.777,1657.407z"/>
						</g>
					</g>
					<g>
						<path style="fill:#F9D6B6;" d="M1386.608,1440.967c-378.47-283.402-528.33,538.911-1.28,365.57
							C1359.417,1688.585,1361.473,1566.486,1386.608,1440.967z"/>
					</g>
					<g>
						<path style="fill:#F4B68C;" d="M1045.438,1591.173c-14.179,146.02,81.499,300.346,339.889,215.364
							c-3.676-16.732-6.725-33.556-9.289-50.452C1155.891,1824.549,1057.094,1716.099,1045.438,1591.173z"/>
					</g>
					<g>
						<path d="M1367.356,1602.002c1.834-52.999,8.37-106.695,19.252-161.035c-2.755-2.063-5.495-4.054-8.226-6.001
							C1369.682,1491.39,1365.891,1547.085,1367.356,1602.002z"/>
					</g>
					<g style="opacity:0.6;">
						<g>
							<path style="fill:#FFFFFF;" d="M1377.849,1490.843c2.514-16.565,5.417-33.188,8.759-49.876
								c-216.134-161.842-357.704,36.912-341.237,204.909C1060.575,1496.84,1190.143,1357.307,1377.849,1490.843z"/>
						</g>
						<g>
							<path style="fill:#FFFFFF;" d="M1375.473,1809.665c3.265-1.013,6.536-2.037,9.854-3.128
								c-10.803-49.177-16.677-99.085-18.112-149.651C1365.359,1708.496,1368.018,1759.436,1375.473,1809.665z"/>
						</g>
					</g>
					<g>
						<path style="fill:#F28475;" d="M2891.938,1534.517c209.415-149.778,327.471,259.332-0.687,196.049
							C2899.396,1669.682,2898.671,1603.794,2891.938,1534.517z"/>
					</g>
					<g>
						<path style="fill:#F28475;" d="M1372.757,1529.196c-208.361-151.241-329.28,257.032-0.687,196.049
							C1364.352,1664.306,1365.538,1598.425,1372.757,1529.196z"/>
					</g>
					<g>
						<path style="fill:#650000;" d="M2864.453,1375.305c55.485,155.291,62.188,333.825-2.82,487.312
							c-4.235,9.666-19.125,5.484-17.466-5.071c12.418-79.514,21.342-158.127,20.643-238.254
							c-0.114-80.178-9.962-159.314-20.084-239.214C2843.359,1368.227,2860.181,1363.985,2864.453,1375.305L2864.453,1375.305z"/>
					</g>
					<g>
						<path style="fill:#650000;" d="M3013.309,1861.982c-40.354,0-87.942-7.568-143.901-26.409
							c-12.214-4.114-19.338-16.804-16.484-29.373c24.988-110.063,25.361-229.587,1.111-355.247
							c-1.833-9.509,1.96-19.226,9.753-24.978c108.04-79.732,215.083-85,293.667-14.436
							c91.018,81.719,115.73,240.188,53.962,346.045C3190.184,1793.979,3134.256,1861.982,3013.309,1861.982z M2906.722,1794.66
							c124.067,36.384,216.394,14.556,261.294-62.397c48.838-83.701,27.803-218.748-44.131-283.335
							c-57.2-51.355-134.045-48.208-217.551,8.477C2927.362,1575.646,2927.486,1688.893,2906.722,1794.66z"/>
					</g>
					<g>
						<path style="fill:#650000;" d="M2955.953,1762.411c-20.464,0-43.511-2.17-69.46-7.175c-13.074-2.522-21.909-14.805-20.144-28
							c7.434-55.581,7.625-117.825,0.581-190.288c-0.867-8.931,3.093-17.646,10.391-22.869
							c66.787-47.759,137.563-50.425,189.319-7.112c50.862,42.561,68.567,118.11,41.182,175.735
							C3095.272,1709.106,3057.33,1762.411,2955.953,1762.411z M2918.939,1709.597c72.515,9.331,124.209-7.878,143.496-48.464
							c17.573-36.975,5.254-87.766-28.044-115.63c-31.287-26.179-72.139-25.486-116.074,1.614
							C2923.436,1607.079,2923.648,1660.602,2918.939,1709.597z"/>
					</g>
					<g>
						<path style="fill:#650000;" d="M1421.049,1375.093c-10.679,79.819-21.084,158.897-21.759,239.067
							c-1.26,80.123,7.113,158.789,18.973,238.394c1.579,10.398-13.343,14.793-17.5,4.948
							c-48.295-115.254-55.133-245.892-32.217-367.929c7.62-40.757,18.33-80.779,32.81-119.39
							C1405.589,1359.048,1422.594,1363.154,1421.049,1375.093L1421.049,1375.093z"/>
					</g>
					<g>
						<path style="fill:#650000;" d="M1251.368,1855.812c-122.529,0-178.535-69.021-199.646-105.791
							c-61.023-106.286-35.203-264.58,56.384-345.659c79.077-70.002,186.077-63.992,293.559,16.494
							c7.754,5.806,11.479,15.549,9.578,25.046c-25.129,125.486-25.591,245.007-1.377,355.244
							c2.766,12.59-4.443,25.229-16.689,29.258C1338.14,1848.505,1291.234,1855.812,1251.368,1855.812z M1233.638,1406.24
							c-34.08,0-65.261,11.877-92.224,35.747c-72.385,64.08-94.365,198.975-46.116,283.015
							c44.365,77.273,136.528,99.746,260.852,64.229c-20.024-105.908-19.104-219.153,2.749-337.246
							C1314.72,1421.54,1272.318,1406.24,1233.638,1406.24z"/>
					</g>
					<g>
						<path style="fill:#650000;" d="M1309.19,1756.645c-102.927,0-140.901-54.111-153.347-80.779
							c-26.982-57.815-8.75-133.237,42.41-175.442c52.061-42.949,122.813-39.795,189.263,8.44
							c7.263,5.271,11.162,14.014,10.232,22.937c-7.551,72.414-7.798,134.658-0.752,190.288c1.675,13.208-7.248,25.43-20.339,27.859
							C1351.541,1754.609,1329.139,1756.645,1309.19,1756.645z M1281.783,1520.365c-18.894,0-36.318,6.253-51.553,18.818
							c-33.491,27.632-46.165,78.332-28.853,115.43c19.006,40.723,70.588,58.288,143.152,49.47
							c-4.365-49.026-3.782-102.544,1.76-162.473C1323.721,1527.472,1301.92,1520.365,1281.783,1520.365z"/>
					</g>
				</g>
			</g>
			<g>
				<g>
					<path style="fill:#F53B6B;" d="M2798.771,2392.797c0.339,69.529-19.33,134.399-53.597,189.243
						c-0.043,0.087-0.086,0.13-0.173,0.216c-8.905,12.406-18.07,24.598-26.714,37.176
						c-105.268,153.17-290.432,397.487-520.241,516.273c-48.172,24.9-106.949,17.45-153.723-9.987
						c-292.996-171.863-419.093-356.722-534.934-543.678c-35.826-57.34-55.696-125.637-53.427-198.76
						c5.775-186.135,157.16-337.384,343.299-343.016c143.342-4.337,268.305,76.489,328.021,195.654
						c58.263-116.267,178.641-196.037,317.597-195.82C2638.701,2040.402,2797.827,2198.975,2798.771,2392.797z"/>
				</g>
				<g>
					<path style="fill:#D82756;" d="M2796.073,2351.64c-6.415,52.37-24.198,101.21-50.899,143.946
						c-0.043,0.087-0.086,0.13-0.173,0.216c-8.905,12.406-18.07,24.598-26.714,37.176c-28.964,42.145-64.01,91.206-104.339,142.639
						c2.132-9.571,3.511-19.208,4.319-28.893l-266.569-114.913c22.368,86.358,43.445,174.365,85.3,235.843
						c14.365,21.1,18.528,47.664,10.145,71.773c-5.933,17.063-15.173,33.626-27.422,49.734
						c-66.914,61.862-140.516,117.807-219.467,158.943c-46.495,24.225-102.242,22.301-147.604-3.985
						c-96.906-56.155-175.749-113.714-242.071-172.293c-28.198-24.906-31.889-67.014-9.698-97.394
						c45.053-61.679,66.858-153.042,90.061-242.621l-266.569,114.913c0.736,8.823,1.961,17.604,3.781,26.333
						c-43.983-58.711-81.907-117.984-118.766-177.471c-26.719-42.763-44.548-91.627-50.952-144.036
						c-1.274,10.453-2.142,21.026-2.475,31.731c-2.269,73.123,17.601,141.42,53.427,198.76
						c116.166,187.479,242.644,372.849,537.398,545.12c49.388,28.865,110.483,30.447,160.923,3.461
						c225.334-120.553,406.79-360.173,510.578-511.19c8.644-12.577,17.809-24.769,26.714-37.176c0.086-0.086,0.13-0.129,0.173-0.216
						c34.267-54.845,53.936-119.714,53.597-189.243C2798.704,2378.872,2797.727,2365.156,2796.073,2351.64z M2446.944,2863.345
						c-8.379,8.159-16.876,16.229-25.48,24.211L2446.944,2863.345z"/>
				</g>
				<g style="opacity:0.6;">
					<path style="fill:#FFFFFF;" d="M1799.26,2123.837c123.449-3.735,233.267,55.695,299.515,148.382
						c14.029,19.628,43.05,19.52,57.086-0.103c64.384-90.011,169.871-148.631,289.017-148.445
						c180.373,0.283,330.621,137.651,351.377,312.917c1.696-14.356,2.588-28.96,2.516-43.792
						c-0.944-193.822-160.07-352.395-353.893-352.699c-138.956-0.218-259.333,79.553-317.597,195.82
						c-59.424-118.582-183.458-199.199-325.918-195.711c-183.584,4.495-334.923,150.966-345.026,334.327
						c-1.165,21.15-0.464,41.917,1.933,62.161C1478.46,2264.647,1623.291,2129.162,1799.26,2123.837z"/>
				</g>
				<g>
					<path style="fill:#650000;" d="M2133.577,3172.314c-33.647,0-68.579-9.409-100.191-27.954
						c-292.004-171.279-418.391-350.845-542.37-550.938c-39.375-63.018-58.982-135.938-56.66-210.811
						c6.147-198.091,166.145-357.954,364.248-363.95c132.8-4.111,257.91,63.081,328.638,173.525
						c68.73-108.076,186.956-173.706,317.073-173.706c0.2,0,0.396,0,0.598,0c206.021,0.322,374.448,168.213,375.471,374.209l0,0
						c0.347,71.255-19.321,140.693-56.88,200.806l-0.005-0.005c-0.366,0.581-0.764,1.157-1.187,1.709
						c-2.986,4.155-5.999,8.291-9.014,12.422c-5.737,7.871-11.672,16.011-17.197,24.053
						c-179.495,261.167-352.249,432.319-528.132,523.228C2185.433,3166.552,2159.898,3172.314,2133.577,3172.314z
						 M1809.918,2061.713c-3.333,0-6.66,0.054-10.005,0.151c-175.317,5.308-316.909,146.787-322.349,322.085
						c-2.056,66.294,15.286,130.83,50.154,186.641c120.938,195.181,244.077,370.215,527.539,536.484
						c43.657,25.605,94.561,29.214,132.864,9.429c169.402-87.563,336.995-254.16,512.354-509.312
						c5.869-8.54,11.985-16.929,17.898-25.039c2.996-4.106,5.991-8.213,8.958-12.344c32.905-52.993,50.134-114.146,49.827-176.904
						l0,0c-0.886-182.339-149.961-330.908-332.312-331.196c-0.171,0-0.359,0-0.53,0c-126.816,0-240.847,70.42-297.71,183.892
						c-3.665,7.314-11.145,11.929-19.324,11.929s-15.659-4.614-19.324-11.929
						C2051.563,2133.066,1935.357,2061.713,1809.918,2061.713z M2745.001,2582.255h0.051H2745.001z"/>
				</g>
				<g>
					<path style="fill:#000072;" d="M2718.275,2641.049c-4.614,0-9.258-1.47-13.184-4.497c-9.253-7.134-11.162-20.327-4.314-29.79
						c6.426-8.877,12.805-17.778,19.187-26.685l7.478-10.425c6.804-9.478,19.9-11.846,29.583-5.356
						c9.692,6.489,12.488,19.492,6.318,29.39c-8.44,13.545-17.979,26.816-28.347,39.458
						C2730.731,2638.339,2724.532,2641.049,2718.275,2641.049z"/>
				</g>
				<g style="opacity:0.6;">
					
						<ellipse transform="matrix(0.5 -0.866 0.866 0.5 -998.1293 2833.6899)" style="fill:#FFFFFF;" cx="1954.984" cy="2281.25" rx="51.716" ry="114.457"/>
				</g>
			</g>
			<g>
				<g>
					<path style="fill:#D3613B;" d="M1343.394,2649.605c33.043,84.748,110.292,142.627,196.863,147.583
						c107.537,6.156,176.099-72.405,183.84-81.583l-149.437-342.656c-52.593,46.109-105.187,92.219-157.78,138.328"/>
				</g>
				<g>
					<path style="fill:#BC462F;" d="M1680.004,2614.5c-20.054,21.321-84.154,80.286-177.873,74.921
						c-54.882-3.142-105.998-27.575-144.499-66.617l-14.238,26.802c33.043,84.748,110.292,142.627,196.863,147.583
						c107.537,6.156,176.099-72.405,183.84-81.583L1680.004,2614.5z"/>
				</g>
				<g>
					<path style="fill:#D3613B;" d="M2916.873,2649.605c-32.684,83.264-108.751,140.204-194.207,145.383
						c-107.906,6.54-176.456-72.744-183.841-81.583l149.437-342.655c52.593,46.109,105.187,92.219,157.78,138.328"/>
				</g>
				<g>
					<path style="fill:#BC462F;" d="M2585.385,2614.5c20.054,21.321,84.154,80.286,177.873,74.921
						c54.882-3.142,105.998-27.575,144.499-66.617l14.238,26.802c-33.043,84.748-110.292,142.627-196.863,147.583
						c-107.537,6.156-176.099-72.405-183.84-81.583L2585.385,2614.5z"/>
				</g>
				<g>
					<path style="fill:#650000;" d="M1552.388,2819.15c-4.395,0-8.843-0.127-13.367-0.386
						c-94.988-5.435-179.68-68.755-215.764-161.309c-4.336-11.123,1.165-23.652,12.285-27.988
						c11.123-4.341,23.655,1.167,27.988,12.285c29.958,76.841,99.812,129.38,177.961,133.857
						c78.928,4.541,135.615-42.754,157.146-64.316l-131.965-302.598l-135.545,118.833c-8.982,7.871-22.634,6.968-30.5-2.002
						c-7.869-8.975-6.973-22.632,2.004-30.498l157.781-138.33c5.188-4.546,12.219-6.338,18.962-4.844
						c6.731,1.504,12.341,6.133,15.098,12.456l149.436,342.656c3.286,7.534,2.012,16.284-3.289,22.573
						C1727.615,2744.96,1659.42,2819.15,1552.388,2819.15z"/>
				</g>
				<g>
					<path style="fill:#650000;" d="M2709.83,2816.991c-107.051,0-174.68-74.268-187.595-89.736
						c-5.244-6.284-6.492-14.99-3.22-22.495l149.436-342.651c2.759-6.318,8.367-10.947,15.098-12.451
						c6.724-1.494,13.777,0.298,18.962,4.844l157.781,138.32c8.977,7.871,9.873,21.528,2.004,30.503
						c-7.869,8.97-21.526,9.868-30.5,2.007l-135.544-118.833l-131.992,302.661c21.382,21.602,77.764,69.067,157.102,64.258
						c76.97-4.668,145.818-56.367,175.393-131.709c4.363-11.113,16.917-16.592,28.018-12.222
						c11.111,4.36,16.582,16.904,12.222,28.013c-35.701,90.947-119.314,153.384-213.018,159.063
						C2719.193,2816.855,2714.466,2816.991,2709.83,2816.991z"/>
				</g>
			</g>
			<g>
				<g>
					<path style="fill:#FDDBA5;" d="M1586.008,2645.569c-73.959-117.069-44.578-338.542,53.494-419.593
						c32.421-18.372,65.922,3.242,46.469,90.778c77.036-21.714,134.332-16.292,149.135,47.55
						c43.858,31.246,47.149,74.786,12.968,129.682c60.561-11.924,35.425,102.931-92.619,206.402
						C1703.565,2742.32,1621.641,2701.972,1586.008,2645.569z"/>
				</g>
				<g style="opacity:0.2;">
					<g>
						<path d="M1865.084,2398.749c-2.327-5.131-5.302-10.065-8.994-14.781c-2.418,4.637-5.02,9.329-8.016,14.141
							C1854.844,2396.775,1860.48,2397.106,1865.084,2398.749z"/>
					</g>
					<g>
						<path style="fill:#F4B68C;" d="M1855.417,2493.222c-20.143,34.123-53.144,73.455-99.961,111.288
							c-51.89,41.932-133.814,1.583-169.447-54.819c-20.918-33.112-33.557-74.58-38.725-118.856
							c-8.512,77.557,3.059,158.28,38.725,214.734c35.633,56.403,117.557,96.751,169.447,54.819
							C1877.94,2601.41,1906.198,2492.099,1855.417,2493.222z"/>
					</g>
				</g>
				<g>
					<path style="fill:#FDDBA5;" d="M2668.698,2654.215c73.959-117.069,44.578-338.542-53.494-419.593
						c-32.421-18.372-65.922,3.242-46.469,90.778c-77.036-21.714-134.332-16.292-149.135,47.55
						c-43.858,31.246-47.149,74.786-12.968,129.682c-60.561-11.924-35.425,102.931,92.619,206.402
						C2551.142,2750.966,2633.066,2710.617,2668.698,2654.215z"/>
				</g>
				<g style="opacity:0.2;">
					<g>
						<path d="M2383.558,2436.854c0.009,0.653,0.08,1.324,0.105,1.981C2383.605,2438.156,2383.595,2437.517,2383.558,2436.854z"/>
					</g>
					<g>
						<path d="M2384.913,2421.982c3.565-12.42,13.587-18.432,29.858-15.228c-4.268-6.854-7.951-13.531-11.044-20.029
							C2393.723,2397.345,2387.461,2409.101,2384.913,2421.982z"/>
					</g>
					<g>
						<path style="fill:#F4B68C;" d="M2676.837,2558.336c-35.633,56.403-117.557,96.751-169.447,54.819
							c-79.905-64.571-119.727-133.568-123.664-173.428c0.941,18.939,8.589,39.912,22.906,62.904
							c-60.561-11.924-35.424,102.931,92.619,206.402c51.891,41.932,133.815,1.583,169.447-54.819
							c30.445-48.19,43.342-114.072,41.182-180.567C2703.13,2504.927,2692.262,2533.92,2676.837,2558.336z"/>
					</g>
				</g>
				<g>
					<path style="fill:#650000;" d="M1705.057,2739.355c-6.599,0-13.359-0.566-20.256-1.704
						c-44.895-7.427-90.847-39.038-117.063-80.537c-79.109-125.215-48.755-359.58,57.996-447.798
						c0.974-0.806,2.017-1.523,3.115-2.144c20.977-11.885,43.306-11.733,59.734,0.425c14.199,10.508,28.381,32.91,23.889,80.63
						c43.545-8.281,76.931-5.166,101.499,9.365c19.399,11.47,32.871,29.614,40.124,54.004c26.013,21.025,55.322,61.328,26.76,126.68
						c6.465,4.116,11.665,10.063,15.212,17.651c22.556,48.291-33.242,145.483-127.029,221.274
						C1750.914,2731.845,1729.078,2739.355,1705.057,2739.355z M1604.281,2634.028c19.619,31.055,54.812,55.557,87.571,60.972
						c19.773,3.271,36.597-0.576,50.02-11.421c99.321-80.264,121.606-154.893,115.332-168.794c-0.869-0.078-2.512-0.068-4.954,0.405
						c-8.469,1.66-17.078-1.846-21.963-8.931c-4.89-7.085-5.11-16.392-0.559-23.701c36.531-58.662,15.361-84.604-7.163-100.649
						c-4.295-3.057-7.322-7.583-8.513-12.72c-3.857-16.631-11.082-27.881-22.087-34.39c-19.353-11.45-53.037-10.518-100.127,2.754
						c-7.317,2.08-15.183,0.132-20.713-5.093c-5.527-5.229-7.9-12.974-6.25-20.396c10.3-46.353,3.193-65.869-2.002-69.717
						c-2.375-1.743-7.209-0.361-11.191,1.621C1562.025,2320.234,1536.636,2526.923,1604.281,2634.028L1604.281,2634.028z"/>
				</g>
				<g>
					<path style="fill:#650000;" d="M1845.11,2383.462l-128.342,51.838c-9.103,3.62-15.728-9.106-7.557-14.473
						c0,0,115.892-75.683,115.892-75.683c10.043-6.558,23.5-3.733,30.057,6.309
						C1862.677,2362.685,1857.662,2378.532,1845.11,2383.462L1845.11,2383.462z"/>
				</g>
				<g>
					<path style="fill:#650000;" d="M1859.568,2512.29l-99.136,48.489c-10.704,5.17-19.868-9.547-10.593-16.873
						c0,0,86.741-68.225,86.741-68.225C1862.509,2457.274,1887.442,2496.897,1859.568,2512.29L1859.568,2512.29z"/>
				</g>
				<g>
					<path style="fill:#650000;" d="M1700.538,2332.722l-69.407,47.637c-9.623,6.571-20.903-5.951-13.518-14.82
						c0,0,53.791-64.753,53.791-64.753C1693.773,2276.653,1726.634,2312.624,1700.538,2332.722L1700.538,2332.722z"/>
				</g>
				<g>
					<path style="fill:#650000;" d="M2549.652,2748.002c-24.023,0-45.859-7.51-63.984-22.158
						c-93.789-75.791-149.585-172.983-127.029-221.27c3.547-7.593,8.75-13.535,15.212-17.651
						c-28.557-65.356,0.75-105.659,26.76-126.685c7.253-24.385,20.725-42.529,40.122-54.004
						c24.57-14.526,57.964-17.637,101.501-9.36c-4.492-47.725,9.692-70.127,23.892-80.63c16.421-12.163,38.755-12.319,59.736-0.425
						c1.099,0.62,2.139,1.338,3.113,2.144c106.741,88.218,137.085,322.573,57.998,447.793l0,0
						c-26.221,41.504-72.173,73.115-117.068,80.537C2563.011,2747.436,2556.248,2748.002,2549.652,2748.002z M2397.503,2523.432
						c-6.27,13.906,16.021,88.535,115.332,168.789c13.425,10.854,30.254,14.688,50.02,11.426
						c32.759-5.415,67.952-29.922,87.571-60.977c0,0,0,0,0.002,0c67.656-107.095,42.261-313.784-47.4-390.054
						c-3.979-1.982-8.813-3.389-11.194-1.621c-5.195,3.843-12.3,23.359-2,69.717c1.65,7.422-0.723,15.166-6.25,20.391
						c-5.525,5.225-13.394,7.168-20.713,5.098c-47.092-13.262-80.781-14.194-100.132-2.759
						c-11.006,6.509-18.228,17.759-22.085,34.39c-1.191,5.137-4.219,9.663-8.513,12.72c-22.522,16.045-43.689,41.987-7.163,100.654
						c4.551,7.31,4.331,16.621-0.559,23.706c-4.895,7.08-13.528,10.581-21.963,8.926
						C2400.02,2523.359,2398.382,2523.344,2397.503,2523.432z"/>
				</g>
				<g>
					<path style="fill:#650000;" d="M2429.604,2353.789l115.892,75.684c8.172,5.404,1.517,18.108-7.558,14.475
						c0,0-128.342-51.838-128.342-51.838c-11.121-4.492-16.495-17.148-12.003-28.269
						C2402.516,2351.25,2418.382,2346.309,2429.604,2353.789L2429.604,2353.789z"/>
				</g>
				<g>
					<path style="fill:#650000;" d="M2418.126,2484.326l86.742,68.228c4.348,3.418,5.101,9.717,1.681,14.065
						c-2.972,3.779-8.124,4.839-12.275,2.805l-99.135-48.489C2367.296,2505.581,2392.145,2465.912,2418.126,2484.326
						L2418.126,2484.326z"/>
				</g>
				<g>
					<path style="fill:#650000;" d="M2583.302,2309.431l53.792,64.756c7.425,8.979-4.011,21.362-13.518,14.817
						c0,0-69.406-47.636-69.406-47.636C2528.112,2321.23,2560.832,2285.318,2583.302,2309.431L2583.302,2309.431z"/>
				</g>
			</g>
			<g>
				<g>
					<path style="fill:#FFFFFF;" d="M1115.367,1046.408c23.648-38.69,35.307-85.135,30.319-133.725
						c-12.109-117.936-117.531-203.725-235.467-191.616c-117.936,12.109-203.725,117.531-191.617,235.467
						c12.109,117.936,117.531,203.725,235.467,191.616c32.804-3.368,63.108-13.974,89.522-30.043l99.34,22.279L1115.367,1046.408z"
						/>
				</g>
				<g style="opacity:0.5;">
					<g>
						<path style="fill:#FFFFFF;" d="M914.436,762.137c110.169-11.311,209.392,62.815,231.858,168.761
							c0.027-7.568-0.299-15.203-1.09-22.901c-12.109-117.936-117.53-203.725-235.466-191.616S706.013,833.912,718.122,951.848
							c0.794,7.731,2.011,15.315,3.584,22.751C722.12,866.252,804.231,773.452,914.436,762.137z"/>
					</g>
				</g>
				<g>
					<path style="fill:#650000;" d="M931.971,1170.961c-119.573,0.01-222.458-90.737-234.929-212.212
						c-13.308-129.639,81.328-245.933,210.962-259.243c129.68-13.308,245.935,81.328,259.243,210.962
						c4.993,48.621-4.836,96.396-28.455,138.796l24.939,85.022c2.161,7.366,0.264,15.325-4.985,20.923
						c-5.244,5.603-13.049,8.003-20.557,6.328l-91.038-20.42c-28.052,15.667-58.577,25.278-90.867,28.594
						C948.128,1170.549,940.001,1170.959,931.971,1170.961z M932.288,741.608c-6.567,0-13.181,0.334-19.856,1.018
						c-105.857,10.869-183.137,105.835-172.268,211.694c10.869,105.857,105.857,183.189,211.692,172.268
						c28.809-2.957,55.884-12.041,80.471-27c4.797-2.915,10.53-3.862,16.008-2.632l63.445,14.231l-17.212-58.679
						c-1.721-5.867-0.884-12.188,2.305-17.405c22.175-36.284,31.599-77.852,27.251-120.207
						C1113.941,815.712,1029.913,741.608,932.288,741.608z"/>
				</g>
				<g style="opacity:0.2;">
					<path style="fill:#650000;" d="M1116.572,1044.347c-58.797,49.733-139.799,71.511-220.236,51.492
						c-89.206-22.202-154.934-90.132-178.574-172.575c-0.565,10.931-0.311,22.043,0.841,33.271
						c12.109,117.936,117.531,203.725,235.467,191.616c32.804-3.368,63.107-13.974,89.522-30.042l99.341,22.279l-27.565-93.978
						C1115.782,1045.729,1116.165,1045.03,1116.572,1044.347z"/>
				</g>
				<g>
					<path style="fill:#FF0068;" d="M1000.786,874.33L1000.786,874.33c-18.578-18.578-48.697-15.249-67.275,3.329l-2.891,2.891
						l-2.891-2.891c-18.577-18.577-48.697-21.906-67.275-3.329l0,0c-18.577,18.577-18.577,48.697,0,67.275l2.891,2.891
						l58.407,58.407c4.898,4.898,12.838,4.898,17.736,0l58.407-58.407l2.891-2.891
						C1019.363,923.027,1019.363,892.907,1000.786,874.33z"/>
				</g>
			</g>
		</g>
	</g>
</g>
</svg>
